<?xml version="1.0" encoding="iso-8859-1"?>
<!-- Generator: Adobe Illustrator 21.0.1, SVG Export Plug-In . SVG Version: 6.00 Build 0)  -->
<svg version="1.1" id="Capa_1" xmlns="http://www.w3.org/2000/svg" xmlns:xlink="http://www.w3.org/1999/xlink" x="0px" y="0px"
	 viewBox="0 0 90 90" style="enable-background:new 0 0 90 90;" xml:space="preserve">
<g>
	<path style="fill-rule:evenodd;clip-rule:evenodd;" d="M84.164,60.652c1.716,0.534,3.122,1.589,4.205,3.164
		c1.069,1.603,1.631,3.22,1.631,4.88v13.599c0,1.898-0.689,3.544-2.025,4.922c-1.336,1.392-2.953,2.081-4.838,2.081H67.936
		c-1.378,0-2.939-0.267-4.683-0.773c-1.758-0.534-3.206-1.195-4.331-1.997L3.191,49.064c-1.688-1.069-2.686-2.602-3.052-4.486
		c-0.366-1.913-0.014-3.656,1.083-5.288l23.26-35.129c0.731-1.083,1.673-1.955,2.841-2.545c1.125-0.605,2.348-0.914,3.684-0.914
		c0.52,0,1.027,0.07,1.547,0.169c0.506,0.141,0.998,0.295,1.463,0.52l20.18,9.085c1.491,0.647,2.784,1.73,3.895,3.248
		c1.125,1.533,1.772,3.136,1.941,4.809l2.152,17.635c0.098,0.942,0.366,2.081,0.759,3.417c0.394,1.378,0.83,2.475,1.294,3.333
		L69.918,54c0.267,0.647,0.816,1.308,1.659,2.039c0.816,0.731,1.617,1.153,2.363,1.336L84.164,60.652z M29.291,7.284l-15.961,24.3
		L62.789,69.23c0.675,0.464,1.575,0.914,2.742,1.294c1.139,0.408,2.109,0.605,2.911,0.605h15.975V69.23
		c0-0.534-0.183-1.041-0.563-1.617c-0.38-0.534-0.788-0.844-1.252-0.984l-10.21-3.291c-1.167-0.338-2.278-0.914-3.347-1.688
		c-1.097-0.773-2.025-1.645-2.827-2.644l-8.677,2.18l-1.364-5.639l7.031-1.814l-1.027-1.983l-9.802,2.517l-1.448-5.724l8.494-2.25
		l-0.253-0.605c-0.169-0.281-0.323-0.577-0.436-0.914c-0.112-0.295-0.225-0.633-0.338-0.998l-10.392,2.686l-1.448-5.695
		l10.125-2.602l-0.183-0.745c-0.056-0.183-0.084-0.38-0.084-0.563l-2.138-17.733c-0.07-0.548-0.352-1.195-0.816-1.941
		c-0.492-0.717-1.055-1.181-1.673-1.42L31.696,6.665c-0.056-0.113-0.169-0.169-0.309-0.169h-0.38c-0.352,0-0.689,0.084-0.984,0.211
		C29.699,6.862,29.46,7.059,29.291,7.284z M83.137,83.504c0.267,0,0.534-0.113,0.759-0.352c0.225-0.211,0.309-0.52,0.267-0.858
		v-5.878H68.273c-1.434,0-3.009-0.309-4.683-0.928c-1.688-0.605-3.136-1.294-4.331-2.109L10.054,36.267l-4.12,6.23
		c-0.169,0.309-0.211,0.591-0.127,0.9c0.084,0.323,0.239,0.605,0.464,0.83l55.73,37.463c0.745,0.52,1.702,0.942,2.883,1.294
		c1.153,0.352,2.18,0.52,3.052,0.52H83.137z"/>
</g>
</svg>
