<?xml version="1.0" encoding="iso-8859-1"?>
<!-- Generator: Adobe Illustrator 21.0.1, SVG Export Plug-In . SVG Version: 6.00 Build 0)  -->
<svg version="1.1" id="Capa_1" xmlns="http://www.w3.org/2000/svg" xmlns:xlink="http://www.w3.org/1999/xlink" x="0px" y="0px"
	 viewBox="0 0 90 90" style="enable-background:new 0 0 90 90;" xml:space="preserve">
<g>
	<path d="M45,0C20.187,0,0,20.186,0,45s20.187,45,45,45s45-20.186,45-45S69.813,0,45,0z M45,83.868
		C23.568,83.868,6.132,66.431,6.132,45S23.568,6.132,45,6.132S83.869,23.569,83.869,45S66.432,83.868,45,83.868z"/>
	<circle cx="45.176" cy="63.672" r="4.943"/>
	<path d="M45.176,21.385c-2.73,0-4.943,2.213-4.943,4.943l1.648,26.086c0,1.82,1.475,3.295,3.295,3.295
		c1.82,0,3.295-1.476,3.295-3.295l1.648-26.086C50.119,23.598,47.906,21.385,45.176,21.385z"/>
</g>
</svg>
