<?xml version="1.0" encoding="iso-8859-1"?>
<!-- Generator: Adobe Illustrator 21.0.1, SVG Export Plug-In . SVG Version: 6.00 Build 0)  -->
<svg version="1.1" id="Capa_1" xmlns="http://www.w3.org/2000/svg" xmlns:xlink="http://www.w3.org/1999/xlink" x="0px" y="0px"
	 viewBox="0 0 90 90" style="enable-background:new 0 0 90 90;" xml:space="preserve">
<path d="M45,0C20.187,0,0,20.186,0,45s20.187,45,45,45s45-20.186,45-45S69.813,0,45,0z M50.119,63.672
	c0,2.73-2.213,4.943-4.943,4.943c-2.73,0-4.943-2.213-4.943-4.943c0-2.73,2.213-4.943,4.943-4.943
	C47.906,58.73,50.119,60.943,50.119,63.672z M50.119,26.328l-1.648,26.086c0,1.82-1.475,3.295-3.295,3.295
	c-1.82,0-3.295-1.476-3.295-3.295l-1.648-26.086c0-2.73,2.213-4.943,4.943-4.943C47.906,21.385,50.119,23.598,50.119,26.328z"/>
</svg>
