<?xml version="1.0" encoding="iso-8859-1"?>
<!-- Generator: Adobe Illustrator 21.0.1, SVG Export Plug-In . SVG Version: 6.00 Build 0)  -->
<svg version="1.1" id="Capa_1" xmlns="http://www.w3.org/2000/svg" xmlns:xlink="http://www.w3.org/1999/xlink" x="0px" y="0px"
	 viewBox="0 0 90 90" style="enable-background:new 0 0 90 90;" xml:space="preserve">
<g>
	<path style="fill-rule:evenodd;clip-rule:evenodd;" d="M83.655,48.757l-7.718-27.36h-6.12v5.153h2.948v10.845h2.947v11.362H83.655z
		 M62.257,16.087V10.08h-34.74v6.007H62.257z M65.205,26.55v-6.007H24.547v6.007H65.205z M68.378,37.395v-6.39H21.622v6.39H68.378z
		 M31.207,48.757c1.17,3.285,2.79,6.007,4.883,8.123c2.092,2.138,5.017,3.195,8.797,3.195c3.78,0,6.705-1.057,8.775-3.195
		c2.048-2.115,3.668-4.838,4.838-8.123h12.6v-6.592H18.675v6.592H31.207z M14.287,48.757V37.62h2.948V26.55h2.858v-5.153h-6.03
		l-7.785,27.36H14.287z M5.895,54.697v23.535H83.88V54.697H62.73c-1.733,3.42-4.14,6.165-7.268,8.213
		c-3.127,2.07-6.57,3.083-10.35,3.083c-3.87,0-7.402-1.012-10.575-3.083c-3.172-2.048-5.602-4.792-7.267-8.213H5.895z M66.87,15.458
		h13.68l9.45,33.3v35.618H0V48.757l9.45-33.3h13.59V5.625h43.605v9.833H66.87z"/>
</g>
</svg>
