<?xml version="1.0" encoding="iso-8859-1"?>
<!-- Generator: Adobe Illustrator 21.0.1, SVG Export Plug-In . SVG Version: 6.00 Build 0)  -->
<svg version="1.1" id="Capa_1" xmlns="http://www.w3.org/2000/svg" xmlns:xlink="http://www.w3.org/1999/xlink" x="0px" y="0px"
	 viewBox="0 0 90 90" style="enable-background:new 0 0 90 90;" xml:space="preserve">
<path style="fill-rule:evenodd;clip-rule:evenodd;" d="M0.131,44.996C0.131,20.146,20.217,0,45,0s44.869,20.146,44.869,44.996
	C89.869,69.854,69.783,90,45,90S0.131,69.854,0.131,44.996z M20.376,49.243l23.718-23.718c0.501-0.501,1.313-0.501,1.814,0
	l23.718,23.718c0.501,0.501,0.501,1.313,0,1.814l-5.419,5.419c-0.5,0.5-1.311,0.501-1.812,0.002L45.905,40.046
	c-0.5-0.499-1.31-0.499-1.81,0L27.606,56.477c-0.501,0.499-1.312,0.499-1.812-0.002l-5.419-5.419
	C19.875,50.555,19.875,49.744,20.376,49.243z"/>
</svg>
