<?xml version="1.0" encoding="iso-8859-1"?>
<!-- Generator: Adobe Illustrator 21.0.1, SVG Export Plug-In . SVG Version: 6.00 Build 0)  -->
<svg version="1.1" id="Capa_1" xmlns="http://www.w3.org/2000/svg" xmlns:xlink="http://www.w3.org/1999/xlink" x="0px" y="0px"
	 viewBox="0 0 90 90" style="enable-background:new 0 0 90 90;" xml:space="preserve">
<path style="fill-rule:evenodd;clip-rule:evenodd;" d="M0.131,44.996C0.131,20.146,20.217,0,45,0s44.869,20.146,44.869,44.996
	C89.869,69.854,69.783,90,45,90S0.131,69.854,0.131,44.996z M28.244,34.207l15.842,15.787c0.505,0.503,1.322,0.503,1.827,0
	l15.842-15.787c1.109-1.105,2.903-1.103,4.009,0.004l3.404,3.404c1.108,1.108,1.108,2.905,0,4.013L47.006,63.79
	c-1.108,1.108-2.905,1.108-4.013,0L20.831,41.627c-1.108-1.108-1.108-2.905,0-4.013l3.404-3.404
	C25.342,33.104,27.135,33.102,28.244,34.207z"/>
</svg>
