<?xml version="1.0" encoding="iso-8859-1"?>
<!-- Generator: Adobe Illustrator 21.0.1, SVG Export Plug-In . SVG Version: 6.00 Build 0)  -->
<svg version="1.1" id="Capa_1" xmlns="http://www.w3.org/2000/svg" xmlns:xlink="http://www.w3.org/1999/xlink" x="0px" y="0px"
	 viewBox="0 0 90 90" style="enable-background:new 0 0 90 90;" xml:space="preserve">
<g>
	<g>
		<path d="M72.252,44.424c-1.134,0-2.052,0.378-2.772,1.152c-0.72,0.774-1.062,1.692-1.062,2.754c0,1.008,0.396,1.908,1.152,2.664
			c0.774,0.774,1.674,1.17,2.682,1.17c1.062,0,1.98-0.396,2.754-1.17c0.774-0.756,1.152-1.656,1.152-2.664
			c0-1.062-0.378-1.98-1.152-2.754C74.232,44.802,73.314,44.424,72.252,44.424z M61.452,44.424c-1.134,0-2.052,0.378-2.772,1.152
			c-0.72,0.774-1.062,1.692-1.062,2.754c0,1.008,0.396,1.908,1.152,2.664c0.774,0.774,1.674,1.17,2.682,1.17
			c1.062,0,1.98-0.396,2.754-1.17c0.774-0.756,1.152-1.656,1.152-2.664c0-1.062-0.378-1.98-1.152-2.754
			C63.432,44.802,62.514,44.424,61.452,44.424z M72.252,57.024c-1.134,0-2.052,0.378-2.772,1.152
			c-0.72,0.774-1.062,1.692-1.062,2.754c0,1.008,0.396,1.908,1.152,2.664c0.774,0.774,1.674,1.17,2.682,1.17
			c1.062,0,1.98-0.396,2.754-1.17c0.774-0.756,1.152-1.656,1.152-2.664c0-1.062-0.378-1.98-1.152-2.754
			C74.232,57.402,73.314,57.024,72.252,57.024z M61.452,57.024c-1.134,0-2.052,0.378-2.772,1.152
			c-0.72,0.774-1.062,1.692-1.062,2.754c0,1.008,0.396,1.908,1.152,2.664c0.774,0.774,1.674,1.17,2.682,1.17
			c1.062,0,1.98-0.396,2.754-1.17c0.774-0.756,1.152-1.656,1.152-2.664c0-1.062-0.378-1.98-1.152-2.754
			C63.432,57.402,62.514,57.024,61.452,57.024z M50.652,57.024c-1.134,0-2.052,0.378-2.772,1.152
			c-0.72,0.774-1.062,1.692-1.062,2.754c0,1.008,0.396,1.908,1.152,2.664c0.774,0.774,1.674,1.17,2.682,1.17
			c1.062,0,1.98-0.396,2.754-1.17c0.774-0.756,1.152-1.656,1.152-2.664c0-1.062-0.378-1.98-1.152-2.754
			C52.632,57.402,51.714,57.024,50.652,57.024z M39.852,57.024c-1.134,0-2.052,0.378-2.772,1.152
			c-0.72,0.774-1.062,1.692-1.062,2.754c0,1.008,0.396,1.908,1.152,2.664c0.774,0.774,1.674,1.17,2.682,1.17
			c1.062,0,1.98-0.396,2.754-1.17c0.774-0.756,1.152-1.656,1.152-2.664c0-1.062-0.378-1.98-1.152-2.754
			C41.832,57.402,40.914,57.024,39.852,57.024z M29.052,57.024c-1.134,0-2.052,0.378-2.772,1.152
			c-0.72,0.774-1.062,1.692-1.062,2.754c0,1.008,0.396,1.908,1.152,2.664c0.774,0.774,1.674,1.17,2.682,1.17
			c1.062,0,1.98-0.396,2.754-1.17c0.774-0.756,1.152-1.656,1.152-2.664c0-1.062-0.378-1.98-1.152-2.754
			C31.032,57.402,30.114,57.024,29.052,57.024z M18.252,57.024c-1.134,0-2.052,0.378-2.772,1.152
			c-0.72,0.774-1.062,1.692-1.062,2.754c0,1.008,0.396,1.908,1.152,2.664c0.774,0.774,1.674,1.17,2.682,1.17
			c1.062,0,1.98-0.396,2.754-1.17c0.774-0.756,1.152-1.656,1.152-2.664c0-1.062-0.378-1.98-1.152-2.754
			C20.232,57.402,19.314,57.024,18.252,57.024z M50.652,69.624c-1.134,0-2.052,0.378-2.772,1.152
			c-0.72,0.774-1.062,1.692-1.062,2.754c0,1.008,0.396,1.908,1.152,2.664c0.774,0.774,1.674,1.17,2.682,1.17
			c1.062,0,1.98-0.396,2.754-1.17c0.774-0.756,1.152-1.656,1.152-2.664c0-1.062-0.378-1.98-1.152-2.754
			C52.632,70.002,51.714,69.624,50.652,69.624z M39.852,69.624c-1.134,0-2.052,0.378-2.772,1.152
			c-0.72,0.774-1.062,1.692-1.062,2.754c0,1.008,0.396,1.908,1.152,2.664c0.774,0.774,1.674,1.17,2.682,1.17
			c1.062,0,1.98-0.396,2.754-1.17c0.774-0.756,1.152-1.656,1.152-2.664c0-1.062-0.378-1.98-1.152-2.754
			C41.832,70.002,40.914,69.624,39.852,69.624z M29.052,69.624c-1.134,0-2.052,0.378-2.772,1.152
			c-0.72,0.774-1.062,1.692-1.062,2.754c0,1.008,0.396,1.908,1.152,2.664c0.774,0.774,1.674,1.17,2.682,1.17
			c1.062,0,1.98-0.396,2.754-1.17c0.774-0.756,1.152-1.656,1.152-2.664c0-1.062-0.378-1.98-1.152-2.754
			C31.032,70.002,30.114,69.624,29.052,69.624z M18.252,69.624c-1.134,0-2.052,0.378-2.772,1.152
			c-0.72,0.774-1.062,1.692-1.062,2.754c0,1.008,0.396,1.908,1.152,2.664c0.774,0.774,1.674,1.17,2.682,1.17
			c1.062,0,1.98-0.396,2.754-1.17c0.774-0.756,1.152-1.656,1.152-2.664c0-1.062-0.378-1.98-1.152-2.754S19.314,69.624,18.252,69.624
			z M9.09,83.664V39.15h71.568v44.514H9.09z M32.976,19.584c0,0.954-0.27,1.674-0.81,2.178c-0.522,0.522-1.242,0.774-2.106,0.774
			c-0.972,0-1.71-0.252-2.232-0.774c-0.522-0.504-0.792-1.224-0.792-2.178V7.74c0-0.9,0.27-1.602,0.792-2.142
			c0.522-0.54,1.26-0.792,2.232-0.792c0.756,0,1.44,0.252,2.034,0.792c0.576,0.54,0.882,1.242,0.882,2.142V19.584z M60.048,4.806
			c0.882,0,1.602,0.252,2.142,0.792c0.54,0.54,0.792,1.242,0.792,2.142v11.844c0,0.954-0.306,1.674-0.9,2.178
			c-0.594,0.522-1.26,0.774-2.034,0.774c-0.81,0-1.53-0.252-2.124-0.774c-0.594-0.504-0.882-1.224-0.882-2.178V7.74
			c0-0.9,0.27-1.602,0.792-2.142S59.076,4.806,60.048,4.806z M21.798,16.83v2.754c0,2.304,0.774,4.194,2.304,5.616
			c1.548,1.422,3.42,2.124,5.688,2.124c2.232,0,4.14-0.702,5.67-2.124c1.548-1.422,2.304-3.312,2.304-5.616V16.83h14.04v2.754
			c0,2.304,0.756,4.194,2.304,5.616c1.548,1.422,3.42,2.124,5.67,2.124s4.14-0.702,5.688-2.124c1.548-1.422,2.304-3.312,2.304-5.616
			V16.83h12.888v15.75H9.09V16.83h12.96H21.798z M60.048,0c-2.304,0-4.23,0.738-5.724,2.196c-1.53,1.458-2.268,3.312-2.268,5.544
			v2.754H37.944V7.74c0-2.232-0.774-4.086-2.268-5.544C34.164,0.738,32.292,0,30.06,0c-2.322,0-4.248,0.738-5.742,2.196
			c-1.53,1.458-2.268,3.312-2.268,5.544v2.754H5.904c-0.9,0-1.656,0.324-2.268,0.9C3.006,11.988,2.7,12.762,2.7,13.698v73.08
			c0,0.954,0.306,1.728,0.936,2.322C4.248,89.676,5.004,90,5.904,90h78.228c0.864,0,1.62-0.324,2.232-0.9
			c0.63-0.594,0.936-1.368,0.936-2.322v-73.08c0-0.936-0.306-1.71-0.936-2.304c-0.612-0.576-1.368-0.9-2.232-0.9H67.95V7.74
			c0-2.232-0.774-4.086-2.268-5.544C64.17,0.738,62.298,0,60.048,0z"/>
	</g>
</g>
</svg>
