<?xml version="1.0" encoding="iso-8859-1"?>
<!-- Generator: Adobe Illustrator 21.0.1, SVG Export Plug-In . SVG Version: 6.00 Build 0)  -->
<svg version="1.1" id="Capa_1" xmlns="http://www.w3.org/2000/svg" xmlns:xlink="http://www.w3.org/1999/xlink" x="0px" y="0px"
	 viewBox="0 0 90 90" style="enable-background:new 0 0 90 90;" xml:space="preserve">
<g>
	<path d="M44.727,37.007c-6.35,0-11.324,4.974-11.324,11.324c0,6.35,4.974,11.324,11.324,11.324c6.35,0,11.324-4.974,11.324-11.324
		C56.052,41.982,51.078,37.007,44.727,37.007z"/>
	<path d="M45,0C20.147,0,0,20.147,0,45c0,24.853,20.147,45,45,45c24.853,0,45-20.147,45-45C90,20.147,69.853,0,45,0z M44.727,62.646
		c-8.027,0-14.315-6.288-14.315-14.315c0-8.028,6.288-14.316,14.315-14.316c8.027,0,14.315,6.288,14.315,14.316
		C59.043,56.358,52.755,62.646,44.727,62.646z M69.725,56.879c0,3.289-2.481,5.769-5.77,5.769h-2.136
		c-0.923,0-1.496-0.573-1.496-1.495s0.573-1.495,1.496-1.495h2.136c1.635,0,2.777-1.142,2.777-2.778V37.65
		c0-1.635-1.142-2.777-2.777-2.777h-4.862l-8.547-8.547H38.904l-8.547,8.547h-4.862c-1.635,0-2.777,1.142-2.777,2.777v19.23
		c0,1.635,1.142,2.778,2.777,2.778h2.137c0.922,0,1.495,0.573,1.495,1.495s-0.573,1.495-1.495,1.495h-2.137
		c-3.289,0-5.77-2.481-5.77-5.769V37.648c0-3.289,2.48-5.769,5.77-5.769h3.685l8.547-8.547h13.999l8.547,8.547h3.684
		c3.288,0,5.768,2.481,5.768,5.769V56.879z"/>
</g>
</svg>
