<?xml version="1.0" encoding="iso-8859-1"?>
<!-- Generator: Adobe Illustrator 21.0.1, SVG Export Plug-In . SVG Version: 6.00 Build 0)  -->
<svg version="1.1" id="Capa_1" xmlns="http://www.w3.org/2000/svg" xmlns:xlink="http://www.w3.org/1999/xlink" x="0px" y="0px"
	 viewBox="0 0 90 90" style="enable-background:new 0 0 90 90;" xml:space="preserve">
<g>
	<path style="fill-rule:evenodd;clip-rule:evenodd;" d="M71.526,47.511L46.989,72.592c-0.711,0.711-1.563,1.066-2.558,1.066
		s-1.847-0.355-2.558-1.066l-3.434-3.411c-0.687-0.734-1.042-1.587-1.042-2.605c0-1.018,0.355-1.871,1.042-2.582l12.671-12.908H3.6
		c-0.995,0-1.824-0.332-2.558-1.066C0.355,49.287,0,48.458,0,47.439v-4.95c0-0.947,0.355-1.753,1.042-2.487
		c0.734-0.734,1.563-1.113,2.558-1.161h47.511L38.439,26.005c-0.687-0.687-1.042-1.539-1.042-2.558s0.355-1.895,1.042-2.629
		l3.434-3.482c0.711-0.711,1.563-1.089,2.558-1.089s1.847,0.379,2.558,1.089l24.537,25.058c0.355,0.379,0.616,0.782,0.805,1.232
		c0.189,0.45,0.261,0.924,0.261,1.374c0,0.426-0.071,0.876-0.261,1.303C72.142,46.753,71.882,47.155,71.526,47.511z M77.945,11.961
		c0-0.995,0.355-1.847,1.089-2.582c0.711-0.734,1.539-1.089,2.511-1.089H86.4c0.995,0,1.824,0.355,2.558,1.089
		C89.645,10.113,90,10.966,90,11.961v66.079c0,1.018-0.355,1.871-1.042,2.605c-0.734,0.734-1.563,1.066-2.558,1.066h-4.855
		c-0.924,0-1.753-0.332-2.487-1.066c-0.734-0.734-1.113-1.587-1.113-2.605V11.961z"/>
</g>
</svg>
