<?xml version="1.0" encoding="iso-8859-1"?>
<!-- Generator: Adobe Illustrator 21.0.1, SVG Export Plug-In . SVG Version: 6.00 Build 0)  -->
<svg version="1.1" id="Capa_1" xmlns="http://www.w3.org/2000/svg" xmlns:xlink="http://www.w3.org/1999/xlink" x="0px" y="0px"
	 viewBox="0 0 90 90" style="enable-background:new 0 0 90 90;" xml:space="preserve">
<g>
	<path d="M18.099,39.07l-9.22-9.48c-2.98-2.99-5.2-5.86-6.63-8.65c-1.45-2.76-2.02-5.42-1.71-7.94c0.17-2.46,0.85-4.31,2.06-5.54
		c1.19-1.23,1.89-1.88,2.07-2.02c0.98-0.63,2.13-0.9,3.42-0.79c1.28,0.14,2.37,0.62,3.25,1.5L28.209,23l-0.53,0.36l-3.08,2.98
		L7.829,9.66h-0.27c-0.13,0.06-0.48,0.42-1.09,1.05c-0.62,0.66-0.99,1.63-1.1,2.9c-0.07,1.19,0.31,2.81,1.14,4.87
		c0.81,2.09,2.72,4.61,5.71,7.6l7.29,7.29c-0.24,0.59-0.46,1.2-0.66,1.84c-0.22,0.66-0.37,1.36-0.48,2.11
		c-0.07,0.3-0.13,0.61-0.18,0.92C18.129,38.57,18.099,38.85,18.099,39.07z M66.939,61.81l15.46,15.28c0.46,0.42,0.81,0.92,1.06,1.5
		c0.22,0.59,0.35,1.2,0.35,1.84c0,0.66-0.13,1.27-0.35,1.84c-0.25,0.6-0.6,1.1-1.06,1.5l-2.81,2.89c-0.48,0.46-1.01,0.82-1.58,1.06
		c-0.59,0.22-1.21,0.35-1.84,0.35c-0.66,0-1.28-0.13-1.85-0.35c-0.59-0.24-1.1-0.6-1.49-1.06l-16.43-16.24
		c1.23-0.46,2.22-0.94,2.99-1.45c0.74-0.48,1.25-0.83,1.49-1.01l0.09-0.17l15.2,15.27l2.45-2.54l-15.19-15.19L66.939,61.81z
		 M88.289,23.88c1.09,1.06,1.67,2.37,1.71,3.95c0.02,1.58-0.46,2.97-1.45,4.13L63.079,59l-5.27,5.27c-0.13,0.18-0.93,0.71-2.42,1.58
		c-1.49,0.88-3.45,1.32-5.84,1.32c-2,0-3.91-0.39-5.71-1.23c-1.82-0.81-3.58-2.04-5.27-3.69l-21.96,25.82
		c-0.48,0.57-1.05,1.03-1.76,1.36c-0.7,0.31-1.44,0.5-2.19,0.57h-0.26c-0.77,0-1.5-0.15-2.16-0.44c-0.68-0.31-1.27-0.7-1.8-1.23
		l-6.76-6.76c-0.59-0.53-1.03-1.14-1.32-1.89c-0.31-0.72-0.39-1.47-0.35-2.24c0.04-0.74,0.26-1.49,0.66-2.19
		c0.37-0.7,0.86-1.32,1.45-1.85l25.73-21.95c-3.93-3.9-5.62-7.68-5.05-11.32c0.55-3.63,1.5-6.26,2.86-7.91l0.17-0.26l5.27-4.92
		l26.97-25.46c0.53-0.53,1.14-0.92,1.85-1.18c0.7-0.27,1.4-0.4,2.1-0.4c0.75,0,1.5,0.15,2.2,0.44c0.7,0.31,1.32,0.68,1.84,1.14
		l0.53,0.53c0.53,0.52,0.92,1.14,1.23,1.8c0.29,0.68,0.44,1.42,0.44,2.24c0,0.76-0.15,1.49-0.44,2.19c-0.31,0.7-0.7,1.3-1.23,1.76
		l-24.51,24.5l2.11,2.01l24.42-24.41c0.46-0.52,1.03-0.92,1.71-1.18c0.66-0.26,1.37-0.4,2.07-0.4c0.92,0,1.8,0.2,2.63,0.58
		c0.82,0.39,1.54,0.9,2.2,1.53c1.27,1.3,1.98,2.77,2.06,4.44c0.09,1.66-0.44,3.07-1.53,4.17l-24.42,24.41l2.02,2.1l24.5-24.49
		c1.06-1.1,2.38-1.67,3.96-1.67s2.92,0.57,4.04,1.67L88.289,23.88z M84.859,28.45c0.04-0.11,0.09-0.29,0.09-0.53
		c0-0.22-0.05-0.39-0.09-0.52l-0.53-0.53c-0.17-0.18-0.35-0.27-0.48-0.27c-0.15,0-0.31,0.09-0.48,0.27l-28.02,27.92l-9.05-9.04
		l27.93-27.93c0.05-0.11,0.07-0.3,0.05-0.61c-0.05-0.29-0.22-0.61-0.57-0.97c-0.25-0.17-0.47-0.3-0.66-0.44
		c-0.22-0.1-0.44-0.17-0.66-0.17c-0.07,0-0.16,0.04-0.27,0.09l-27.93,27.92l-9.04-9.04l27.93-27.75c0.11-0.11,0.17-0.2,0.22-0.26
		c0.02-0.05,0.04-0.11,0.04-0.18c0-0.11-0.04-0.22-0.09-0.31c-0.06-0.09-0.13-0.15-0.17-0.22l-0.53-0.52
		c-0.07-0.18-0.15-0.27-0.26-0.27h-0.27h-0.26c-0.13,0-0.22,0.05-0.26,0.09l-26.88,25.46l-5.01,4.83c-0.35,0.53-0.9,1.98-1.62,4.35
		c-0.75,2.37,0.48,5.14,3.64,8.3l3.69,3.68L5.369,77.27c-0.07,0.13-0.13,0.22-0.18,0.26c-0.06,0.07-0.08,0.13-0.08,0.18v0.17
		c0,0.07,0.02,0.13,0.08,0.18l6.77,6.76c0.04,0.04,0.11,0.09,0.17,0.13c0.05,0.02,0.13,0.04,0.27,0.04c0.04,0,0.11-0.04,0.17-0.08
		c0.05-0.07,0.11-0.13,0.18-0.18l25.65-30.03l3.68,3.78c1.17,1.23,2.38,2.15,3.65,2.72c1.25,0.59,2.52,0.88,3.82,0.88
		c1.27,0,2.39-0.24,3.34-0.75l1.76-0.92l4.74-4.92L84.859,28.45z"/>
</g>
</svg>
