<?xml version="1.0" encoding="iso-8859-1"?>
<!-- Generator: Adobe Illustrator 21.0.1, SVG Export Plug-In . SVG Version: 6.00 Build 0)  -->
<svg version="1.1" id="Capa_1" xmlns="http://www.w3.org/2000/svg" xmlns:xlink="http://www.w3.org/1999/xlink" x="0px" y="0px"
	 viewBox="0 0 90 90" style="enable-background:new 0 0 90 90;" xml:space="preserve">
<path style="fill-rule:evenodd;clip-rule:evenodd;" d="M0,45C0,20.145,20.145,0,45,0s45,20.145,45,45S69.855,90,45,90S0,69.855,0,45
	z M30.285,41.482l-4.928-5.063c-1.59-1.59-2.775-3.127-3.54-4.612c-0.772-1.478-1.072-2.895-0.907-4.245
	c0.09-1.313,0.45-2.295,1.095-2.955c0.637-0.653,1.012-1.005,1.102-1.08c0.533-0.337,1.14-0.48,1.83-0.42
	c0.683,0.075,1.268,0.33,1.733,0.795l9,9l-0.278,0.188l-1.642,1.597l-8.955-8.91H24.66c-0.075,0.038-0.263,0.225-0.593,0.563
	c-0.322,0.352-0.525,0.87-0.585,1.552c-0.03,0.63,0.165,1.5,0.615,2.603c0.428,1.11,1.448,2.46,3.045,4.05l3.893,3.893
	c-0.135,0.315-0.248,0.645-0.353,0.982c-0.12,0.353-0.202,0.728-0.262,1.125c-0.03,0.165-0.067,0.33-0.09,0.495
	C30.292,41.213,30.285,41.37,30.285,41.482z M56.347,53.625l8.25,8.153c0.24,0.225,0.428,0.495,0.563,0.803
	c0.112,0.315,0.187,0.645,0.187,0.982c0,0.353-0.075,0.683-0.187,0.982c-0.135,0.315-0.323,0.585-0.563,0.795l-1.5,1.553
	c-0.262,0.247-0.54,0.435-0.847,0.563c-0.315,0.112-0.645,0.188-0.983,0.188c-0.352,0-0.682-0.075-0.982-0.188
	c-0.323-0.128-0.593-0.315-0.803-0.563l-8.76-8.678c0.653-0.24,1.178-0.502,1.59-0.772c0.398-0.255,0.668-0.443,0.795-0.54
	l0.053-0.09l8.107,8.152l1.313-1.357L54.472,55.5L56.347,53.625z M67.732,33.375c0.585,0.563,0.893,1.268,0.915,2.107
	c0.015,0.848-0.247,1.583-0.772,2.205l-13.59,14.438l-2.813,2.813c-0.075,0.09-0.495,0.375-1.29,0.84
	c-0.802,0.472-1.845,0.705-3.12,0.705c-1.065,0-2.085-0.21-3.045-0.652c-0.975-0.435-1.912-1.095-2.812-1.973L29.482,67.643
	c-0.255,0.3-0.562,0.548-0.937,0.728c-0.375,0.157-0.773,0.27-1.17,0.3h-0.143c-0.405,0-0.795-0.082-1.147-0.232
	c-0.36-0.165-0.675-0.375-0.96-0.66l-3.608-3.607c-0.315-0.277-0.555-0.607-0.705-1.005c-0.165-0.39-0.21-0.788-0.187-1.2
	c0.022-0.397,0.142-0.795,0.353-1.17c0.195-0.375,0.457-0.705,0.772-0.982L35.482,48.09c-2.092-2.085-3-4.095-2.692-6.045
	c0.292-1.935,0.795-3.337,1.522-4.215l0.098-0.143l2.812-2.625l14.385-13.597c0.285-0.278,0.615-0.487,0.99-0.63
	c0.375-0.142,0.75-0.21,1.125-0.21c0.398,0,0.795,0.083,1.17,0.233c0.375,0.165,0.705,0.368,0.983,0.608l0.285,0.285
	c0.277,0.278,0.487,0.608,0.652,0.96c0.15,0.368,0.233,0.765,0.233,1.193c0,0.413-0.083,0.802-0.233,1.177
	c-0.165,0.375-0.375,0.69-0.652,0.938L43.08,39.09l1.125,1.08l13.027-13.027c0.248-0.285,0.555-0.495,0.915-0.638
	c0.353-0.135,0.728-0.21,1.103-0.21c0.495,0,0.96,0.105,1.41,0.308c0.427,0.21,0.817,0.48,1.17,0.817
	c0.675,0.69,1.05,1.477,1.102,2.37c0.045,0.892-0.24,1.642-0.825,2.228L49.08,45.045l1.08,1.125l13.072-13.08
	c0.563-0.585,1.268-0.885,2.115-0.885c0.84,0,1.553,0.3,2.153,0.885L67.732,33.375z M65.91,35.813
	c0.022-0.06,0.045-0.15,0.045-0.285c0-0.112-0.023-0.21-0.045-0.278l-0.285-0.285c-0.09-0.09-0.188-0.135-0.255-0.135
	c-0.083,0-0.165,0.045-0.263,0.135L50.16,49.875l-4.83-4.83l14.902-14.902c0.023-0.06,0.038-0.165,0.023-0.33
	c-0.023-0.15-0.113-0.33-0.3-0.517c-0.128-0.09-0.248-0.165-0.353-0.233c-0.12-0.06-0.232-0.097-0.352-0.097
	c-0.038,0-0.083,0.03-0.143,0.052L44.205,43.92l-4.83-4.83l14.91-14.813c0.052-0.052,0.09-0.105,0.112-0.135
	c0.015-0.022,0.023-0.06,0.023-0.097c0-0.06-0.023-0.112-0.045-0.165l-0.09-0.112L54,23.483c-0.038-0.09-0.083-0.142-0.143-0.142
	h-0.135H53.58c-0.075,0-0.12,0.03-0.143,0.052l-14.34,13.59l-2.677,2.58c-0.188,0.278-0.48,1.057-0.863,2.318
	c-0.397,1.267,0.255,2.745,1.943,4.432l1.972,1.965l-15.99,13.597c-0.03,0.068-0.067,0.12-0.09,0.143
	c-0.037,0.03-0.045,0.067-0.045,0.09v0.098c0,0.03,0.008,0.067,0.045,0.09L27,65.902c0.022,0.03,0.06,0.053,0.097,0.075
	C27.12,65.985,27.165,66,27.232,66c0.023,0,0.06-0.022,0.098-0.045c0.023-0.037,0.06-0.075,0.09-0.098L41.107,49.83l1.973,2.01
	c0.622,0.66,1.267,1.155,1.942,1.455c0.668,0.315,1.35,0.473,2.04,0.473c0.683,0,1.275-0.128,1.785-0.398l0.938-0.495l2.527-2.625
	L65.91,35.813z"/>
</svg>
