<?xml version="1.0" encoding="iso-8859-1"?>
<!-- Generator: Adobe Illustrator 21.0.1, SVG Export Plug-In . SVG Version: 6.00 Build 0)  -->
<svg version="1.1" id="Capa_1" xmlns="http://www.w3.org/2000/svg" xmlns:xlink="http://www.w3.org/1999/xlink" x="0px" y="0px"
	 viewBox="0 0 90 90" style="enable-background:new 0 0 90 90;" xml:space="preserve">
<path style="fill-rule:evenodd;clip-rule:evenodd;" d="M64.89,30.218h-5.917c-0.18,1.282-0.563,2.452-1.103,3.51
	c-0.54,1.057-1.125,2.138-1.62,3.195l4.32,4.23l-6.21,6.075l-4.32-4.253c-1.147,0.743-2.25,1.35-3.42,1.868
	c-1.192,0.563-2.295,0.9-3.375,1.08v5.85h-9.18v-5.85c-1.147-0.18-2.272-0.518-3.442-1.08c-1.17-0.517-2.295-1.125-3.33-1.868
	l-4.32,4.253l-6.255-6.075l4.342-3.983c-0.585-0.855-1.147-1.89-1.665-3.06c-0.495-1.17-0.9-2.25-1.08-3.308h-5.94v-9.067h5.94
	c0.18-1.193,0.585-2.318,1.08-3.375c0.517-1.08,1.08-2.138,1.665-3.24l-4.342-4.252l6.255-6.615l4.32,4.23
	c1.035-0.495,2.16-1.057,3.33-1.553c1.17-0.517,2.295-0.9,3.442-1.102V0h9.18v5.827c1.08,0.203,2.183,0.585,3.375,1.102
	c1.17,0.495,2.273,1.058,3.42,1.553l4.32-4.23l6.21,6.098l-4.32,4.523c0.495,0.9,1.08,1.89,1.62,3.037
	c0.54,1.17,0.923,2.25,1.103,3.33h5.917V30.218z M70.043,79.065c-0.36,0.743-0.743,1.283-1.08,1.642
	c-0.36,0.315-0.653,0.788-0.833,1.305l1.913,4.23l-8.078,3.465l-2.182-4.252h-0.99H57.87h-0.923H56.25L54.36,90l-8.415-2.925
	l1.912-4.792c-0.382-0.36-0.765-0.675-1.125-1.035c-0.337-0.315-0.697-0.81-1.035-1.35l-4.905,2.115l-3.487-8.235l4.32-1.822v-1.868
	v-1.89l-4.32-1.845l3.24-8.213l3.78,1.575c0.337-0.338,0.765-0.675,1.215-1.035c0.405-0.315,0.855-0.698,1.237-1.08l-1.912-4.522
	l8.1-3.42l2.16,4.252h0.99h0.945h0.945h0.697l1.868-4.545l8.393,2.903l-1.912,4.815c0.36,0.337,0.765,0.765,1.08,1.193
	c0.36,0.405,0.765,0.855,1.103,1.17l4.613-1.845l3.533,7.965l-4.32,2.137v1.552v1.89l4.567,1.868l-3.24,8.19L70.043,79.065z
	 M38.385,37.665c3.42,0,6.278-1.103,8.55-3.308c2.227-2.205,3.352-4.972,3.352-8.37c0-3.127-1.125-5.895-3.352-8.19
	c-2.273-2.295-5.13-3.465-8.55-3.465c-3.082,0-5.85,1.125-8.302,3.33c-2.408,2.205-3.623,5.017-3.623,8.325
	c0,3.24,1.17,5.963,3.533,8.235C32.31,36.54,35.077,37.665,38.385,37.665z M64.125,72.202c0.698-1.777,0.698-3.51,0-5.31
	c-0.765-1.8-2.002-3.105-3.825-3.983c-0.72-0.18-1.282-0.248-1.642-0.248h-1.035c-1.665,0-3.06,0.382-4.253,1.058
	c-1.17,0.698-2.025,1.755-2.565,3.173c-0.518,0.9-0.765,1.822-0.765,2.813c0,0.967,0.247,1.822,0.765,2.497
	c0.36,1.058,0.923,1.935,1.665,2.497c0.697,0.653,1.417,1.17,2.16,1.485c0.697,0.18,1.26,0.248,1.62,0.248h1.373
	c1.417,0,2.722-0.315,3.892-1.058C62.685,74.7,63.563,73.643,64.125,72.202z"/>
</svg>
