<?xml version="1.0" encoding="iso-8859-1"?>
<!-- Generator: Adobe Illustrator 21.0.1, SVG Export Plug-In . SVG Version: 6.00 Build 0)  -->
<svg version="1.1" id="Capa_1" xmlns="http://www.w3.org/2000/svg" xmlns:xlink="http://www.w3.org/1999/xlink" x="0px" y="0px"
	 viewBox="0 0 90 90" style="enable-background:new 0 0 90 90;" xml:space="preserve">
<path style="fill-rule:evenodd;clip-rule:evenodd;" d="M0.131,44.996C0.131,20.146,20.217,0,45,0s44.869,20.146,44.869,44.996
	C89.869,69.854,69.783,90,45,90S0.131,69.854,0.131,44.996z M58.139,54.808c-0.277-0.479-0.673-0.853-1.197-1.122
	c-0.725-0.307-1.645-0.494-2.759-0.561c-1.107-0.075-2.273-0.052-3.485,0.045c-1.974,0.209-3.59,0.09-4.838-0.359
	c-1.249-0.441-2.43-0.92-3.537-1.428c-0.838-0.441-1.72-0.83-2.655-1.152c-0.942-0.322-2.049-0.456-3.335-0.381
	c-2.042,0.067-3.948,0.509-5.721,1.324c-1.772,0.823-3.432,1.832-4.995,3.021v14.022h24.925c1.249,0,2.535-0.127,3.851-0.381
	s2.617-0.621,3.904-1.099c1.286-0.479,2.513-1.032,3.694-1.668c1.182-0.628,2.236-1.339,3.171-2.124
	c1.249-1.025,2.423-2.139,3.515-3.35c1.092-1.211,2.109-2.483,3.044-3.814c0.381-0.576,0.441-1.099,0.179-1.555
	c-0.254-0.464-0.718-0.763-1.376-0.897c-0.905-0.202-1.698,0.015-2.393,0.666c-0.695,0.643-1.369,1.241-2.027,1.787
	c-0.733,0.546-1.466,1.062-2.214,1.541c-0.748,0.471-1.533,0.935-2.371,1.376c-0.83,2.086-2.206,3.238-4.135,3.455
	c-1.922,0.224-3.769,0.284-5.541,0.179c-1.354-0.067-2.662-0.067-3.926,0c-1.271,0.067-2.528,0.359-3.776,0.875
	c-1.107,0.441-1.899,0.105-2.363-1.002c-0.471-1.107-0.15-1.885,0.957-2.326c1.563-0.651,3.088-1.032,4.584-1.152
	c1.488-0.12,3.088-0.127,4.786-0.03c1.182,0,2.438-0.06,3.769-0.179c1.339-0.12,2.124-0.688,2.371-1.713
	C58.453,55.952,58.416,55.286,58.139,54.808z M25.459,71.544h24.977c1.421,0,2.894-0.142,4.427-0.434
	c1.526-0.292,3.036-0.703,4.524-1.226c1.488-0.531,2.924-1.182,4.292-1.944c1.369-0.77,2.61-1.615,3.724-2.535
	c1.421-1.159,2.744-2.4,3.978-3.709c1.234-1.316,2.333-2.737,3.305-4.278c0.591-0.815,0.912-1.653,0.965-2.505
	c0.045-0.853-0.082-1.638-0.396-2.356c-0.411-0.853-0.987-1.533-1.713-2.042c-0.733-0.516-1.563-0.86-2.498-1.025
	c-1.877-0.411-3.305-0.224-4.292,0.561c-0.995,0.785-2.079,1.653-3.253,2.61l-0.89,0.666c-0.307,0.239-0.636,0.441-0.987,0.613
	c-0.172-0.89-0.546-1.63-1.114-2.229c-0.576-0.598-1.279-1.077-2.109-1.458c-1.039-0.509-2.281-0.8-3.724-0.867
	c-1.436-0.067-2.939-0.037-4.502,0.105c-1.451,0.165-2.655,0.082-3.59-0.262c-0.935-0.337-1.84-0.733-2.707-1.174
	c-1.039-0.509-2.146-0.98-3.328-1.406c-1.182-0.426-2.67-0.606-4.472-0.538c-2.116,0.135-4.046,0.538-5.781,1.204
	c-1.735,0.666-3.38,1.511-4.943,2.535h-3.537v24.917h3.642v-3.074V71.544z M40.85,25.643c-0.778-0.785-1.159-1.713-1.159-2.789
	c0-1.159,0.396-2.124,1.189-2.879c0.8-0.763,1.742-1.144,2.834-1.144c1.182,0,2.161,0.396,2.931,1.174
	c0.77,0.785,1.159,1.735,1.159,2.849c0,1.077-0.411,2.004-1.226,2.789c-0.823,0.778-1.772,1.174-2.864,1.174
	C42.577,26.817,41.62,26.42,40.85,25.643z M38.12,17.222c-1.548,1.518-2.318,3.35-2.318,5.496s0.77,3.986,2.318,5.504
	c1.548,1.518,3.41,2.281,5.594,2.281c2.184,0,4.046-0.763,5.594-2.281c1.541-1.518,2.318-3.358,2.318-5.504
	s-0.778-3.978-2.318-5.496c-1.548-1.518-3.41-2.281-5.594-2.281C41.53,14.941,39.668,15.704,38.12,17.222z M32.758,38.655
	c0.778-0.74,1.683-1.107,2.73-1.107h16.856c1.002,0,1.885,0.366,2.662,1.107c0.77,0.733,1.159,1.615,1.159,2.647v5.885l3.821,1.226
	v-7.112c0-2.057-0.763-3.836-2.288-5.332c-1.526-1.496-3.305-2.251-5.354-2.251H35.488c-2.139,0-3.956,0.755-5.452,2.251
	c-1.503,1.496-2.251,3.275-2.251,5.332v4.292l3.814-1.271v-3.021C31.599,40.27,31.988,39.388,32.758,38.655z"/>
</svg>
