<?xml version="1.0" encoding="iso-8859-1"?>
<!-- Generator: Adobe Illustrator 21.0.1, SVG Export Plug-In . SVG Version: 6.00 Build 0)  -->
<svg version="1.1" id="Capa_1" xmlns="http://www.w3.org/2000/svg" xmlns:xlink="http://www.w3.org/1999/xlink" x="0px" y="0px"
	 viewBox="0 0 90 90" style="enable-background:new 0 0 90 90;" xml:space="preserve">
<path style="fill-rule:evenodd;clip-rule:evenodd;" d="M0,45C0,20.15,20.15,0,45,0s45,20.15,45,45S69.85,90,45,90S0,69.85,0,45z
	 M41.513,34.2l-6.163-6.525c-0.475-0.525-1.087-0.8-1.825-0.8c-0.738,0-1.338,0.275-1.838,0.8c-0.5,0.525-0.75,1.163-0.75,1.95
	c0,0.775,0.25,1.413,0.75,1.913L43.225,43.55c0.038,0.038,0.075,0.088,0.075,0.1c0,0.025,0.025,0.037,0.063,0.075
	c0,0.038,0.038,0.088,0.088,0.1c0,0.037,0.037,0.063,0.075,0.063c0.188,0.212,0.4,0.362,0.662,0.438
	c0.25,0.1,0.55,0.138,0.862,0.138c0.275,0,0.538-0.038,0.788-0.15c0.262-0.112,0.5-0.25,0.725-0.425h0.088l0.075-0.063l0.075-0.1
	c0.013,0,0.038-0.037,0.075-0.075l11.537-12.188c0.5-0.525,0.738-1.163,0.738-1.938c0-0.762-0.238-1.4-0.738-1.95
	c-0.5-0.5-1.1-0.775-1.837-0.775c-0.725,0-1.325,0.275-1.838,0.775l-6.162,6.587V17.375c0-1.95-1.588-3.525-3.538-3.525
	c-1.95,0-3.525,1.575-3.525,3.525V34.2z M68.787,45.362H53.3c-0.712,1.975-1.7,3.625-2.975,4.913
	c-1.275,1.287-3.075,1.925-5.4,1.925s-4.125-0.638-5.412-1.925c-1.288-1.288-2.288-2.938-3-4.913h-15.35l4.8-11.875h4.388
	c-1.025-1.2-2.063-2.4-3.1-3.587h-4.125l-5.813,15.462v18.1c0,1.912,1.55,3.463,3.462,3.463h48.45c1.912,0,3.463-1.55,3.463-3.463
	v-18.1L66.875,29.9h-4.15c-1.025,1.188-2.037,2.375-3.037,3.587h4.35L68.787,45.362z M20.938,48.938H34.1
	c1.013,2.088,2.5,3.75,4.463,4.987c1.95,1.25,4.125,1.862,6.513,1.862c2.325,0,4.45-0.612,6.362-1.862
	c1.925-1.237,3.412-2.9,4.463-4.987h13.025V63.2H20.938V48.938z"/>
</svg>
