<?xml version="1.0" encoding="iso-8859-1"?>
<!-- Generator: Adobe Illustrator 21.0.1, SVG Export Plug-In . SVG Version: 6.00 Build 0)  -->
<svg version="1.1" id="Capa_1" xmlns="http://www.w3.org/2000/svg" xmlns:xlink="http://www.w3.org/1999/xlink" x="0px" y="0px"
	 viewBox="0 0 90 90" style="enable-background:new 0 0 90 90;" xml:space="preserve">
<g>
	<path d="M21.094,75.938h22.5v-5.625h-22.5V75.938z M21.094,64.688h45v-5.625h-45V64.688z M21.094,53.438h45v-5.625h-45V53.438z
		 M21.094,42.188h45v-5.625h-45V42.188z M21.094,28.125h25.313V22.5H21.094V28.125z M21.094,16.875h25.313V11.25H21.094V16.875z
		 M9.844,85.5v-81c0-2.485,2.015-4.5,4.5-4.5h42.28c0.851,0,1.701,0.281,2.268,0.844l20.413,20.25
		c0.567,0.563,0.851,1.406,0.851,2.25V85.5c0,2.485-2.015,4.5-4.5,4.5H14.344C11.858,90,9.844,87.985,9.844,85.5z M74.531,82.949
		v-56.23c0-0.777-0.63-1.406-1.406-1.406H58.781c-2.175,0-3.938-1.763-3.938-3.937V7.031c0-0.777-0.63-1.406-1.406-1.406H16.875
		c-0.777,0-1.406,0.63-1.406,1.406v75.938c0,0.777,0.63,1.406,1.406,1.406h56.276C73.703,84.375,74.531,83.805,74.531,82.949z
		 M71.719,19.969L60.469,7.594v10.687c0,0.777,0.63,1.406,1.406,1.406h9.844V19.969z"/>
</g>
</svg>
