<?xml version="1.0" encoding="iso-8859-1"?>
<!-- Generator: Adobe Illustrator 21.0.1, SVG Export Plug-In . SVG Version: 6.00 Build 0)  -->
<svg version="1.1" id="Capa_1" xmlns="http://www.w3.org/2000/svg" xmlns:xlink="http://www.w3.org/1999/xlink" x="0px" y="0px"
	 viewBox="0 0 90 90" style="enable-background:new 0 0 90 90;" xml:space="preserve">
<path style="fill-rule:evenodd;clip-rule:evenodd;" d="M0.131,45C0.131,20.217,20.217,0.131,45,0.131S89.869,20.217,89.869,45
	S69.783,89.869,45,89.869S0.131,69.783,0.131,45z M17.69,27.351v35.297c0,0.972,0.778,1.765,1.735,1.765h33.958
	c-0.09-0.277-0.142-0.576-0.142-0.882v-0.882c0-1.466,1.159-2.647,2.595-2.647h9.542c1.436,0,2.602,1.182,2.602,2.647v0.882
	c0,0.307-0.052,0.606-0.15,0.882h2.744c0.957,0,1.735-0.793,1.735-1.765V27.351c0-0.972-0.778-1.765-1.735-1.765H19.425
	C18.467,25.587,17.69,26.379,17.69,27.351z M69.708,22.939c2.872,0,5.205,2.378,5.205,5.295v33.532c0,2.924-2.333,5.295-5.205,5.295
	H20.292c-2.872,0-5.205-2.371-5.205-5.295V28.234c0-2.916,2.333-5.295,5.205-5.295H69.708z M24.113,44.312l-0.98-8.705l-1.944,0.284
	l-0.12-1.077l3.619-0.531l1.122,9.781L24.113,44.312z M29.296,42.764c0.037,0.284-0.03,0.538-0.15,0.785l-0.628,1.339L27.71,45
	l0.381-1.309c-0.262-0.142-0.419-0.389-0.449-0.688c-0.067-0.523,0.239-0.957,0.725-1.025
	C28.795,41.912,29.229,42.196,29.296,42.764z M33.641,37.073c1.698-0.105,2.969,0.688,3.186,2.333
	c0.254,1.944-1.047,3.163-3.298,3.485c-1.241,0.179-2.587,0.03-3.515-0.359l0.546-1.458c0.808,0.606,1.787,0.86,2.715,0.725
	c1.339-0.187,2.027-1.025,1.885-2.109c-0.142-1.137-1.01-1.608-2.341-1.413l-1.391,0.202l-0.12-0.965l2.214-3.477l-3.993,0.576
	l-0.135-1.077l6.072-0.882l0.097,0.763l-2.445,3.672L33.641,37.073z M40.124,41.209c0.037,0.284-0.022,0.538-0.142,0.793
	l-0.606,1.331l-0.815,0.12l0.366-1.316c-0.269-0.135-0.426-0.389-0.464-0.688c-0.075-0.523,0.232-0.95,0.718-1.025
	C39.608,40.364,40.049,40.648,40.124,41.209z M42.637,32.781l0.411,2.916l1.369-0.209c2.139-0.307,3.567,0.441,3.821,2.176
	c0.299,2.049-0.905,3.253-3.141,3.575c-1.197,0.172-2.722,0.03-3.806-0.344l0.501-1.421c0.942,0.568,2.056,0.808,2.961,0.681
	c1.309-0.187,2.004-0.995,1.832-2.146c-0.15-1.039-1.025-1.57-2.318-1.383c-0.598,0.09-2.004,0.351-2.707,0.523l-0.718-5.205
	l6.035-0.882l0.172,1.084L42.637,32.781z M51.603,39.563c0.045,0.284-0.015,0.538-0.127,0.793l-0.591,1.331l-0.815,0.12l0.344-1.316
	c-0.269-0.135-0.434-0.389-0.479-0.688c-0.075-0.523,0.217-0.95,0.703-1.025C51.08,38.718,51.521,39.002,51.603,39.563z
	 M56.591,39.661l-1.825,0.262l2.565-9.273l-3.919,0.568l0.209,1.428l-1.653,0.239l-0.381-2.505l7.471-1.084l0.15,0.92L56.591,39.661
	z M45.576,56.187c2.124,0.366,4.113-1.144,4.435-3.38c0.322-2.251-1.174-4.36-3.32-4.689c-2.131-0.329-4.083,1.211-4.375,3.432
	C42.024,53.757,43.474,55.828,45.576,56.187z M45.434,57.249c2.685,0.471,5.205-1.436,5.616-4.27
	c0.419-2.857-1.481-5.534-4.21-5.953c-2.7-0.411-5.167,1.548-5.534,4.36C40.939,54.176,42.779,56.793,45.434,57.249z M56.786,49.195
	l1.01,6.416l6.342,1.069l3.014-5.87l-4.629-4.666L56.786,49.195z M55.724,48.702l1.219,7.717l7.598,1.294l3.642-7.082L62.611,45
	L55.724,48.702z M37.395,54.4c-1.01-1.735-3.171-2.819-5.392-1.6c-1.339,0.74-2.819,2.565-1.668,4.651
	c0.658,1.189,2.356,1.952,3.971,0.987c1.197-0.71,1.817-1.765,1.017-3.171c-0.583-1.01-1.541-1.473-2.73-0.8
	c-1.069,0.606-1.241,1.892-0.307,3.246c-0.494-0.232-0.845-0.546-0.995-0.808c-0.718-1.301,0.007-2.55,1.211-3.223
	c1.316-0.733,3.126-0.262,3.926,1.114c0.95,1.645,0.755,4.016-1.496,5.384c-2.318,1.406-5.743,0.583-7.134-1.974
	c-0.576-1.062-0.583-2.767-0.239-4.135l-0.351-0.643l-0.695,0.374c-0.568,1.997-0.359,3.425,0.434,4.891
	c1.309,2.438,4.801,4.704,8.51,2.415C37.447,59.889,38.868,56.928,37.395,54.4z"/>
</svg>
