<?xml version="1.0" encoding="iso-8859-1"?>
<!-- Generator: Adobe Illustrator 21.0.1, SVG Export Plug-In . SVG Version: 6.00 Build 0)  -->
<svg version="1.1" id="Capa_1" xmlns="http://www.w3.org/2000/svg" xmlns:xlink="http://www.w3.org/1999/xlink" x="0px" y="0px"
	 viewBox="0 0 90 90" style="enable-background:new 0 0 90 90;" xml:space="preserve">
<g>
	<path style="fill-rule:evenodd;clip-rule:evenodd;" d="M17.392,14.828c-1.89,0-3.533,0.675-4.905,1.98
		c-1.395,1.327-2.025,2.902-1.98,4.77c0,1.935,0.675,3.578,2.025,4.882c1.35,1.328,2.97,1.958,4.86,1.958
		c1.868,0,3.487-0.63,4.837-1.958c1.35-1.305,2.025-2.947,2.025-4.882c0-1.868-0.675-3.442-2.025-4.77
		C20.88,15.502,19.26,14.828,17.392,14.828z M17.392,33.502c-3.352,0-6.21-1.125-8.55-3.42C6.48,27.81,5.332,24.975,5.4,21.577
		c0-3.217,1.147-5.985,3.465-8.325c2.318-2.34,5.175-3.51,8.528-3.51c3.285,0,6.075,1.17,8.392,3.51s3.487,5.108,3.487,8.325
		c0,3.285-1.17,6.075-3.487,8.415S20.677,33.502,17.392,33.502z M72.607,14.828c-1.868,0-3.51,0.675-4.882,1.98
		c-1.395,1.327-2.048,2.902-1.98,4.77c0,1.935,0.675,3.578,2.025,4.882c1.35,1.328,2.97,1.958,4.838,1.958
		c1.89,0,3.51-0.63,4.86-1.958c1.35-1.305,2.025-2.947,2.025-4.882c0-1.868-0.675-3.442-2.025-4.77
		C76.117,15.502,74.497,14.828,72.607,14.828z M72.607,33.502c-3.33,0-6.188-1.125-8.527-3.42c-2.363-2.273-3.51-5.108-3.443-8.505
		c0-3.217,1.17-5.985,3.533-8.325c2.34-2.34,5.153-3.51,8.438-3.51c3.308,0,6.098,1.17,8.415,3.51s3.488,5.108,3.488,8.325
		c0,3.285-1.148,6.075-3.443,8.415C78.795,32.333,75.96,33.502,72.607,33.502z M44.865,5.085c-1.868,0-3.488,0.675-4.815,2.003
		c-1.328,1.305-1.958,2.902-1.958,4.838c0,1.867,0.63,3.488,1.958,4.793c1.327,1.327,2.947,1.957,4.815,1.957
		c1.935,0,3.555-0.63,4.882-1.957c1.328-1.305,2.003-2.925,2.003-4.793c0-1.935-0.675-3.533-2.003-4.838
		C48.42,5.76,46.8,5.085,44.865,5.085z M44.865,23.94c-3.353,0-6.165-1.17-8.46-3.51c-2.295-2.34-3.42-5.175-3.42-8.505
		c0-3.262,1.17-6.075,3.51-8.415C38.857,1.17,41.647,0,44.865,0c3.285,0,6.12,1.17,8.46,3.51s3.532,5.175,3.532,8.505
		c0,3.285-1.147,6.075-3.442,8.415C51.12,22.77,48.285,23.94,44.865,23.94z M62.662,37.89c0,0.112,0.023,0.248,0.09,0.36
		c0.068,0.112,0.09,0.225,0.09,0.338V58.5c0,0.653-0.09,1.305-0.247,1.935c-0.135,0.653-0.292,1.26-0.45,1.845
		c-0.428,0.945-0.99,1.823-1.665,2.632c-0.675,0.81-1.44,1.53-2.318,2.115c-0.112,0.113-0.202,0.158-0.247,0.158
		c-0.36,0.248-0.765,0.45-1.215,0.585c-0.428,0.158-0.855,0.293-1.26,0.473V90h-5.108V63.607h2.295c0.63,0,1.26-0.135,1.845-0.382
		c0.585-0.27,1.08-0.585,1.485-0.945c0.54-0.517,0.945-1.102,1.283-1.755c0.315-0.653,0.495-1.373,0.495-2.183V38.768
		c0-1.463-0.54-2.678-1.553-3.713c-1.035-1.013-2.272-1.553-3.735-1.553H37.283c-1.395,0-2.632,0.495-3.667,1.463
		c-1.013,0.967-1.53,2.16-1.53,3.623v19.485c0,0.878,0.157,1.643,0.472,2.273c0.338,0.653,0.81,1.237,1.395,1.755
		c0.518,0.36,1.058,0.653,1.575,0.855c0.54,0.202,1.125,0.292,1.755,0.292h2.385V89.64H34.56V67.905
		c-0.405-0.067-0.855-0.18-1.283-0.382c-0.45-0.202-0.832-0.427-1.192-0.585c-0.045,0-0.113-0.045-0.135-0.09
		c-0.023-0.068-0.068-0.09-0.113-0.09c-1.012-0.585-1.822-1.283-2.475-2.137c-0.652-0.855-1.192-1.778-1.665-2.768
		c-0.18-0.585-0.36-1.215-0.517-1.845c-0.135-0.653-0.202-1.305-0.202-1.935V38.43v-0.27v-0.27c0.067-0.585,0.157-1.125,0.27-1.665
		c0.113-0.517,0.27-1.057,0.45-1.575c0.472-1.058,1.08-2.025,1.845-2.903c0.765-0.877,1.62-1.597,2.542-2.182
		c0.72-0.405,1.507-0.743,2.407-0.99c0.923-0.27,1.868-0.428,2.79-0.428h15.075c0.945,0,1.845,0.158,2.723,0.428
		c0.877,0.247,1.71,0.585,2.475,0.99c1.057,0.585,1.935,1.305,2.677,2.182c0.72,0.878,1.305,1.845,1.733,2.903
		c0.225,0.517,0.405,1.057,0.517,1.575C62.595,36.765,62.662,37.305,62.662,37.89z M13.68,42.975c-1.418,0-2.633,0.54-3.668,1.597
		c-1.035,1.035-1.53,2.25-1.53,3.578v14.4c0,1.462,0.495,2.722,1.53,3.735c1.035,1.035,2.25,1.53,3.668,1.53h2.385V89.82h-5.108
		V72.36c-2.182-0.518-4.005-1.688-5.445-3.533c-1.44-1.845-2.137-3.938-2.137-6.278v-14.4c0-2.79,0.99-5.198,3.015-7.222
		c2.025-2.003,4.477-3.038,7.29-3.038h8.19v5.085H13.68z M76.23,37.89c2.88,0,5.31,1.035,7.335,3.038
		c2.025,2.025,3.06,4.432,3.06,7.222v14.4c0,2.34-0.743,4.432-2.183,6.278c-1.44,1.845-3.217,3.015-5.4,3.533v17.46h-5.108V67.815
		h2.295c1.462,0,2.7-0.495,3.735-1.53c1.013-1.013,1.553-2.273,1.553-3.735v-14.4c0-1.463-0.54-2.678-1.553-3.668
		c-1.035-1.012-2.272-1.507-3.735-1.507h-8.28V37.89H76.23z"/>
</g>
</svg>
