<?xml version="1.0" encoding="iso-8859-1"?>
<!-- Generator: Adobe Illustrator 21.0.1, SVG Export Plug-In . SVG Version: 6.00 Build 0)  -->
<svg version="1.1" id="Capa_1" xmlns="http://www.w3.org/2000/svg" xmlns:xlink="http://www.w3.org/1999/xlink" x="0px" y="0px"
	 viewBox="0 0 90 90" style="enable-background:new 0 0 90 90;" xml:space="preserve">
<g>
	<path style="fill-rule:evenodd;clip-rule:evenodd;" d="M20.205,0H83.25v76.635H70.065V90H6.75V13.365h13.455V0z M26.1,5.895v64.868
		h51.435V5.895H26.1z M12.645,19.237v64.868H63.99v-7.29H19.935V19.237H12.645z M34.92,17.573v-4.387h31.365v4.387H34.92z
		 M34.92,28.485v-4.41h31.365v4.41H34.92z M69.952,58.072c-2.565,2.565-6.255,4.208-9.922,4.208c-5.985,0-10.89-3.577-12.667-8.798
		H43.38v-2.34h3.442c-0.112-0.63-0.157-1.238-0.157-1.913c0-0.653,0.045-1.305,0.157-1.935H43.38v-2.34h4.028
		c1.8-5.108,6.75-8.618,12.802-8.618c3.623,0,7.245,1.507,9.72,3.96l-2.497,3.15c-1.913-2.025-4.545-3.262-7.2-3.262
		c-3.51,0-6.547,1.912-8.1,4.77h9.202v2.34h-10.08c-0.112,0.63-0.18,1.238-0.18,1.913c0,0.653,0.068,1.305,0.225,1.935h10.035v2.34
		h-9.202c1.553,2.858,4.59,4.77,8.1,4.77c2.588,0,5.22-1.17,7.2-3.037L69.952,58.072z"/>
</g>
</svg>
