<?xml version="1.0" encoding="iso-8859-1"?>
<!-- Generator: Adobe Illustrator 21.0.1, SVG Export Plug-In . SVG Version: 6.00 Build 0)  -->
<svg version="1.1" id="Capa_1" xmlns="http://www.w3.org/2000/svg" xmlns:xlink="http://www.w3.org/1999/xlink" x="0px" y="0px"
	 viewBox="0 0 90 90" style="enable-background:new 0 0 90 90;" xml:space="preserve">
<g>
	<path d="M2.888,16.37h15.095c1.299,4.857,5.722,8.462,10.961,8.462s9.71-3.606,10.961-8.462h47.21c1.586,0,2.885-1.299,2.885-2.885
		S88.701,10.6,87.115,10.6h-47.21c-1.251-4.857-5.674-8.462-10.961-8.462c-5.24,0-9.71,3.606-10.961,8.462H2.888
		c-1.586,0-2.885,1.299-2.885,2.885S1.302,16.37,2.888,16.37z M28.944,7.91c3.078,0,5.577,2.499,5.577,5.577
		s-2.499,5.577-5.577,5.577s-5.577-2.499-5.577-5.577S25.866,7.91,28.944,7.91z M87.115,42.091H67.884
		c-1.299-4.857-5.722-8.462-10.961-8.462s-9.71,3.606-10.961,8.462H2.885C1.299,42.091,0,43.39,0,44.976
		c0,1.586,1.299,2.885,2.885,2.885h43.077c1.299,4.857,5.722,8.462,10.961,8.462s9.71-3.606,10.961-8.462h19.231
		c1.586,0,2.885-1.299,2.885-2.885C90,43.39,88.701,42.091,87.115,42.091z M56.926,50.553c-3.078,0-5.577-2.499-5.577-5.577
		c0-3.078,2.499-5.577,5.577-5.577s5.577,2.499,5.577,5.577C62.503,48.054,60.004,50.553,56.926,50.553z M87.115,73.63h-47.21
		c-1.299-4.857-5.722-8.462-10.961-8.462s-9.71,3.606-10.961,8.462H2.888c-1.586,0-2.885,1.299-2.885,2.885
		c0,1.586,1.299,2.885,2.885,2.885h15.095c1.299,4.857,5.722,8.462,10.961,8.462s9.71-3.606,10.961-8.462h47.21
		c1.586,0,2.885-1.299,2.885-2.885C90,74.929,88.701,73.63,87.115,73.63z M28.944,82.09c-3.078,0-5.577-2.499-5.577-5.577
		c0-3.078,2.499-5.577,5.577-5.577s5.577,2.499,5.577,5.577C34.521,79.59,32.022,82.09,28.944,82.09z"/>
</g>
</svg>
