<?xml version="1.0" encoding="iso-8859-1"?>
<!-- Generator: Adobe Illustrator 21.0.1, SVG Export Plug-In . SVG Version: 6.00 Build 0)  -->
<svg version="1.1" id="Capa_1" xmlns="http://www.w3.org/2000/svg" xmlns:xlink="http://www.w3.org/1999/xlink" x="0px" y="0px"
	 viewBox="0 0 90 90" style="enable-background:new 0 0 90 90;" xml:space="preserve">
<path style="fill-rule:evenodd;clip-rule:evenodd;" d="M0.131,45C0.131,20.217,20.217,0.131,45,0.131S89.869,20.217,89.869,45
	S69.783,89.869,45,89.869S0.131,69.783,0.131,45z M56.255,44.903c3.156,0,5.885-1.062,8.121-3.231
	c2.236-2.176,3.358-4.816,3.358-7.919c0-3.088-1.122-5.743-3.358-7.904c-2.236-2.169-4.966-3.268-8.121-3.268
	c-3.118,0-5.796,1.099-8.032,3.268c-2.243,2.161-3.358,4.816-3.358,7.904c0,3.103,1.114,5.743,3.358,7.919
	C50.459,43.841,53.136,44.903,56.255,44.903z M50.145,27.733c-1.683,1.668-2.513,3.694-2.513,6.02c0,2.296,0.853,4.27,2.565,5.968
	c1.698,1.705,3.717,2.543,6.057,2.543c2.453,0,4.517-0.838,6.199-2.543c1.66-1.698,2.505-3.672,2.505-5.968
	c0-2.326-0.845-4.352-2.505-6.02c-1.683-1.675-3.747-2.505-6.199-2.505C53.869,25.228,51.82,26.058,50.145,27.733z M74.838,72.669
	H62.626l0.105-1.406c0.037-0.621,0.112-1.197,0.165-1.698c0.045-0.501,0.097-0.95,0.097-1.376l-0.905,4.479H36.879l1.436-17.753
	c-1.092-0.853-2.453-2.356-4.061-4.479c-1.608-2.094-2.902-3.717-3.844-4.831c-2.042-2.819-3.672-6.222-4.943-10.275
	c-1.256-4.031-1.922-6.192-1.974-6.506c-0.187-0.815-0.284-2.266-0.314-4.307c-0.022-2.049,0.755-3.388,2.311-4.031
	c1.413-0.568,3.118-0.568,5.108,0l0.351,0.165l6.828,12.302c1.735,3.477,4.046,6.147,6.94,8.009c2.902,1.877,5.743,3.231,8.51,4.091
	c2.782,0.853,5.19,1.339,7.231,1.481l3.163,0.209h0.269c2.797,0.426,4.936,1.226,6.401,2.386c1.466,1.189,2.535,2.266,3.186,3.246
	c0.733,1.189,1.144,2.214,1.271,3.088c0.09,0.89,0.165,1.339,0.165,1.391v15.816H74.838z M72.138,70.119V57.115
	c0-0.097-0.381-1.226-1.122-3.313c-0.755-2.101-3.26-3.53-7.493-4.248c-0.441,0-1.675-0.067-3.769-0.262
	c-2.094-0.165-4.532-0.688-7.284-1.57c-4.008-1.167-7.463-2.879-10.357-5.167c-2.894-2.296-5.108-5.01-6.663-8.196l-6.274-11.516
	c-0.329-0.037-0.718-0.075-1.144-0.112c-0.441-0.022-0.98,0.037-1.57,0.209c-0.292,0.127-0.479,0.74-0.576,1.892
	c-0.105,1.137-0.03,2.326,0.209,3.567c2.468,7.86,4.651,13.064,6.573,15.629c1.488,2.004,2.999,3.941,4.554,5.84
	c1.555,1.907,2.58,3.029,3.066,3.305l0.808,0.337l-0.179,0.98l-1.256,15.562h20.288l1.339-6.768l0.366-0.187
	c0.284-0.239,0.651-0.389,1.092-0.434c0.441-0.052,0.875,0.022,1.316,0.262c0.703,0.471,1.197,1.264,1.481,2.4
	c0.269,1.152,0.292,2.752,0.052,4.794H72.138z M18.176,33.042c-0.882-0.329-1.458-0.95-1.757-1.832l-1.069-2.647
	c-0.366-0.853-0.344-1.713,0.045-2.565c0.389-0.867,1.025-1.428,1.922-1.742c0.875-0.337,1.75-0.337,2.632,0
	c0.867,0.351,1.481,1.002,1.847,1.929l0.995,2.55c0.351,0.83,0.351,1.668,0,2.528c-0.366,0.853-1.017,1.466-1.974,1.877
	C19.896,33.431,19.021,33.401,18.176,33.042z M35.667,26.372c-0.882-0.337-1.488-0.95-1.855-1.855l-0.965-2.625
	c-0.366-0.875-0.366-1.742,0-2.602c0.337-0.83,0.965-1.398,1.87-1.705c0.95-0.337,1.847-0.337,2.722,0
	c0.875,0.351,1.466,1.002,1.78,1.929l1.069,2.543c0.337,0.838,0.337,1.698-0.052,2.55c-0.389,0.89-1.039,1.503-1.922,1.862
	C37.41,26.761,36.542,26.731,35.667,26.372z"/>
</svg>
