<?xml version="1.0" encoding="iso-8859-1"?>
<!-- Generator: Adobe Illustrator 21.0.1, SVG Export Plug-In . SVG Version: 6.00 Build 0)  -->
<svg version="1.1" id="Capa_1" xmlns="http://www.w3.org/2000/svg" xmlns:xlink="http://www.w3.org/1999/xlink" x="0px" y="0px"
	 viewBox="0 0 90 90" style="enable-background:new 0 0 90 90;" xml:space="preserve">
<path style="fill-rule:evenodd;clip-rule:evenodd;" d="M38.025,36.022c0.225-4.747,2.362-7.065,6.165-7.065
	c3.51,0,5.67,1.642,5.67,5.265c0,7.875-8.932,8.325-8.932,20.115h8.257C48.96,45.022,60.39,43.897,60.39,32.333
	c0-7.898-6.075-12.083-15.232-12.083c-9.495,0-15.48,5.558-15.683,15.682L38.025,36.022z M46.125,60.795
	c-3.195,0-5.49,2.205-5.49,5.445c0,3.173,2.295,5.513,5.49,5.513c3.127,0,5.49-2.34,5.49-5.513
	C51.615,63,49.252,60.795,46.125,60.795z M45,5.332C23.085,5.332,5.332,23.085,5.332,45S23.085,84.668,45,84.668
	S84.667,66.915,84.667,45S66.915,5.332,45,5.332z M90,45c0,24.863-20.138,45-45,45S0,69.863,0,45S20.137,0,45,0S90,20.138,90,45z"/>
</svg>
