<?xml version="1.0" encoding="iso-8859-1"?>
<!-- Generator: Adobe Illustrator 21.0.1, SVG Export Plug-In . SVG Version: 6.00 Build 0)  -->
<svg version="1.1" id="Capa_1" xmlns="http://www.w3.org/2000/svg" xmlns:xlink="http://www.w3.org/1999/xlink" x="0px" y="0px"
	 viewBox="0 0 90 90" style="enable-background:new 0 0 90 90;" xml:space="preserve">
<path style="fill-rule:evenodd;clip-rule:evenodd;" d="M80.255,60.694l-2.433,14.091c0,0.225-0.281,0.619-0.858,1.209
	c-0.577,0.577-1.209,1.097-1.927,1.533c-1.097,0.506-2.405,1.041-3.938,1.631c-1.519,0.591-3.459,1.125-5.794,1.589
	c-2.32,0.478-5.119,0.844-8.409,1.125c-3.277,0.295-7.214,0.408-11.813,0.408c-4.542,0-8.452-0.113-11.742-0.408
	c-3.277-0.281-6.061-0.647-8.409-1.125c-2.32-0.464-4.247-0.998-5.78-1.589c-1.519-0.591-2.827-1.125-3.938-1.631
	c-0.591-0.366-1.238-0.844-1.884-1.42c-0.661-0.534-0.984-0.998-0.984-1.322L9.914,60.694H80.255z M25.158,2.672v53.339H7.144H2.813
	v0.042c-0.155-0.028-0.309-0.042-0.464-0.042C1.055,56.011,0,57.066,0,58.36c0,1.294,1.055,2.334,2.348,2.334
	c0.155,0,0.309-0.014,0.464-0.042v0.042h2.25l2.433,14.091c0,1.955,0.787,3.544,2.348,4.753c1.561,1.223,2.573,1.983,3.066,2.25
	c1.097,0.563,2.377,1.111,3.839,1.659l-1.716,3.431c-0.267,0.548-0.309,1.083-0.141,1.645c0.169,0.577,0.52,0.984,1.041,1.252
	c0.548,0.267,1.069,0.295,1.631,0.084c0.548-0.197,0.956-0.563,1.223-1.097l1.8-3.6c0.084-0.169,0.141-0.323,0.183-0.478
	c0.83,0.211,1.73,0.408,2.686,0.605c2.503,0.506,5.484,0.914,8.944,1.209c3.487,0.309,7.636,0.464,12.431,0.464H45h0.084
	c4.823,0,8.986-0.155,12.473-0.464c3.502-0.295,6.497-0.703,8.986-1.252c0.956-0.197,1.856-0.408,2.686-0.619
	c0.056,0.169,0.112,0.352,0.211,0.534l1.786,3.6c0.281,0.534,0.689,0.9,1.238,1.097c0.563,0.211,1.083,0.183,1.617-0.084
	c0.52-0.267,0.886-0.675,1.041-1.252c0.183-0.563,0.127-1.097-0.141-1.645l-1.758-3.502c1.491-0.548,2.784-1.083,3.867-1.589
	c0.45-0.211,1.448-0.956,3.023-2.208c1.589-1.252,2.391-2.841,2.391-4.795l2.433-14.091h2.25v-0.042
	c0.155,0.028,0.309,0.042,0.464,0.042c1.294,0,2.348-1.041,2.348-2.334c0-1.294-1.055-2.348-2.348-2.348
	c-0.155,0-0.309,0.014-0.464,0.042v-0.042h-4.331H29.433V4.683h23.583c0.689,0,1.237-0.225,1.659-0.675
	c0.422-0.45,0.633-0.984,0.633-1.659c0-0.661-0.211-1.223-0.633-1.673s-0.97-0.675-1.659-0.675H27.605
	c-0.633,0-1.167,0.225-1.617,0.675c-0.225,0.225-0.394,0.478-0.506,0.745C25.27,1.772,25.158,2.194,25.158,2.672z M44.241,15.793
	v12.6c0,0.619,0.197,1.153,0.619,1.589c0.408,0.45,0.914,0.661,1.519,0.661s1.097-0.211,1.519-0.661
	c0.408-0.436,0.605-0.97,0.605-1.589v-12.6c0-0.661-0.197-1.209-0.605-1.617c-0.422-0.422-0.914-0.633-1.519-0.633
	s-1.111,0.211-1.519,0.633C44.438,14.583,44.241,15.132,44.241,15.793z M55.659,15.793c-0.183-0.773-0.534-1.364-1.083-1.772
	c-0.548-0.422-1.153-0.563-1.8-0.436c-0.661,0.141-1.153,0.492-1.477,1.097c-0.352,0.591-0.394,1.28-0.183,2.053l3.431,12.361
	c0.141,0.534,0.45,0.914,0.942,1.167c0.478,0.281,0.956,0.337,1.491,0.197c0.506-0.127,0.914-0.394,1.181-0.858
	c0.267-0.45,0.352-0.914,0.239-1.448L55.659,15.793z M36.914,15.793l-2.756,12.361c-0.113,0.534-0.028,0.998,0.239,1.448
	c0.267,0.464,0.675,0.731,1.181,0.858c0.534,0.141,1.027,0.084,1.491-0.197c0.492-0.253,0.802-0.633,0.942-1.167l3.431-12.361
	c0.225-0.773,0.183-1.462-0.169-2.053c-0.338-0.605-0.83-0.956-1.491-1.097c-0.633-0.127-1.252,0.014-1.8,0.436
	C37.434,14.429,37.083,15.019,36.914,15.793z M39.839,11.251h13.134c0.647,0,1.181-0.239,1.645-0.703
	c0.478-0.492,0.689-1.041,0.689-1.688c0-0.661-0.211-1.195-0.689-1.631c-0.464-0.436-0.998-0.661-1.645-0.661H39.839
	c-0.689,0-1.252,0.225-1.688,0.661c-0.436,0.436-0.647,0.97-0.647,1.631c0,0.647,0.211,1.195,0.647,1.688
	C38.588,11.011,39.15,11.251,39.839,11.251z"/>
</svg>
