<?xml version="1.0" encoding="iso-8859-1"?>
<!-- Generator: Adobe Illustrator 21.0.1, SVG Export Plug-In . SVG Version: 6.00 Build 0)  -->
<svg version="1.1" id="Capa_1" xmlns="http://www.w3.org/2000/svg" xmlns:xlink="http://www.w3.org/1999/xlink" x="0px" y="0px"
	 viewBox="0 0 90 90" style="enable-background:new 0 0 90 90;" xml:space="preserve">
<path style="fill-rule:evenodd;clip-rule:evenodd;" d="M63.802,53.37l-1.297,7.515c0,0.12-0.15,0.33-0.458,0.645
	c-0.307,0.308-0.645,0.585-1.027,0.818c-0.585,0.27-1.283,0.555-2.1,0.87c-0.81,0.315-1.845,0.6-3.09,0.848
	c-1.238,0.255-2.73,0.45-4.485,0.6c-1.748,0.158-3.848,0.217-6.3,0.217c-2.423,0-4.508-0.06-6.263-0.217
	c-1.747-0.15-3.232-0.345-4.485-0.6c-1.237-0.248-2.265-0.533-3.082-0.848c-0.81-0.315-1.508-0.6-2.1-0.87
	c-0.315-0.195-0.66-0.45-1.005-0.757c-0.353-0.285-0.525-0.533-0.525-0.705l-1.298-7.515H63.802z M34.417,22.425v28.448H24.81H22.5
	v0.022c-0.083-0.015-0.165-0.022-0.247-0.022c-0.69,0-1.253,0.563-1.253,1.252s0.562,1.245,1.253,1.245
	c0.082,0,0.165-0.007,0.247-0.022v0.022h1.2l1.297,7.515c0,1.043,0.42,1.89,1.253,2.535c0.832,0.653,1.372,1.058,1.635,1.2
	c0.585,0.3,1.267,0.592,2.047,0.885l-0.915,1.83c-0.142,0.293-0.165,0.577-0.075,0.878c0.09,0.307,0.278,0.525,0.555,0.667
	c0.293,0.143,0.57,0.158,0.87,0.045c0.293-0.105,0.51-0.3,0.653-0.585l0.96-1.92c0.045-0.09,0.075-0.173,0.097-0.255
	c0.443,0.112,0.923,0.217,1.433,0.323c1.335,0.27,2.925,0.487,4.77,0.645c1.86,0.165,4.072,0.247,6.63,0.247H45h0.045
	c2.572,0,4.792-0.082,6.652-0.247c1.868-0.158,3.465-0.375,4.793-0.668c0.51-0.105,0.99-0.217,1.432-0.33
	c0.03,0.09,0.06,0.188,0.113,0.285l0.952,1.92c0.15,0.285,0.368,0.48,0.66,0.585c0.3,0.112,0.578,0.097,0.863-0.045
	c0.277-0.142,0.472-0.36,0.555-0.667c0.097-0.3,0.067-0.585-0.075-0.878l-0.938-1.868c0.795-0.292,1.485-0.577,2.063-0.847
	c0.24-0.113,0.772-0.51,1.612-1.178c0.848-0.667,1.275-1.515,1.275-2.558L66.3,53.37h1.2v-0.022
	c0.082,0.015,0.165,0.022,0.247,0.022c0.69,0,1.253-0.555,1.253-1.245s-0.563-1.252-1.253-1.252c-0.082,0-0.165,0.007-0.247,0.022
	v-0.022h-2.31H36.697V23.497h12.578c0.367,0,0.66-0.12,0.885-0.36c0.225-0.24,0.337-0.525,0.337-0.885
	c0-0.353-0.112-0.653-0.337-0.892S49.642,21,49.275,21H35.722c-0.337,0-0.622,0.12-0.862,0.36c-0.12,0.12-0.21,0.255-0.27,0.397
	C34.477,21.945,34.417,22.17,34.417,22.425z M44.595,29.423v6.72c0,0.33,0.105,0.615,0.33,0.847c0.217,0.24,0.487,0.352,0.81,0.352
	c0.322,0,0.585-0.112,0.81-0.352c0.218-0.233,0.322-0.518,0.322-0.847v-6.72c0-0.353-0.105-0.645-0.322-0.863
	c-0.225-0.225-0.488-0.337-0.81-0.337c-0.323,0-0.593,0.112-0.81,0.337C44.7,28.778,44.595,29.07,44.595,29.423z M50.685,29.423
	c-0.098-0.413-0.285-0.728-0.578-0.945c-0.292-0.225-0.615-0.3-0.96-0.233c-0.352,0.075-0.615,0.262-0.787,0.585
	c-0.188,0.315-0.21,0.683-0.097,1.095l1.83,6.593c0.075,0.285,0.24,0.487,0.503,0.622c0.255,0.15,0.51,0.18,0.795,0.105
	c0.27-0.067,0.487-0.21,0.63-0.458c0.142-0.24,0.187-0.487,0.127-0.772L50.685,29.423z M40.687,29.423l-1.47,6.592
	c-0.06,0.285-0.015,0.533,0.128,0.772c0.142,0.248,0.36,0.39,0.63,0.458c0.285,0.075,0.547,0.045,0.795-0.105
	c0.262-0.135,0.427-0.337,0.502-0.622l1.83-6.593c0.12-0.412,0.098-0.78-0.09-1.095c-0.18-0.323-0.443-0.51-0.795-0.585
	c-0.337-0.068-0.667,0.007-0.96,0.233C40.965,28.695,40.777,29.01,40.687,29.423z M42.247,27h7.005c0.345,0,0.63-0.128,0.878-0.375
	c0.255-0.263,0.367-0.555,0.367-0.9c0-0.353-0.112-0.638-0.367-0.87c-0.248-0.233-0.533-0.352-0.878-0.352h-7.005
	c-0.367,0-0.667,0.12-0.9,0.352c-0.232,0.233-0.345,0.517-0.345,0.87c0,0.345,0.113,0.637,0.345,0.9
	C41.58,26.872,41.88,27,42.247,27z M0,45C0,20.145,20.145,0,45,0s45,20.145,45,45S69.855,90,45,90S0,69.855,0,45z"/>
</svg>
