<?xml version="1.0" encoding="iso-8859-1"?>
<!-- Generator: Adobe Illustrator 21.0.1, SVG Export Plug-In . SVG Version: 6.00 Build 0)  -->
<svg version="1.1" id="Capa_1" xmlns="http://www.w3.org/2000/svg" xmlns:xlink="http://www.w3.org/1999/xlink" x="0px" y="0px"
	 viewBox="0 0 90 90" style="enable-background:new 0 0 90 90;" xml:space="preserve">
<path style="fill-rule:evenodd;clip-rule:evenodd;" d="M0,10c0-2.75,2.25-5,5-5s5,2.25,5,5s-2.25,5-5,5S0,12.75,0,10z M15,10
	c0,2.75,2.25,5,5,5h65c2.75,0,5-2.25,5-5s-2.25-5-5-5H20C17.25,5,15,7.25,15,10z M0,27.5c0-2.75,2.25-5,5-5s5,2.25,5,5s-2.25,5-5,5
	S0,30.25,0,27.5z M15,27.5c0,2.75,2.25,5,5,5h65c2.75,0,5-2.25,5-5s-2.25-5-5-5H20C17.25,22.5,15,24.75,15,27.5z M0,45
	c0-2.75,2.25-5,5-5s5,2.25,5,5s-2.25,5-5,5S0,47.75,0,45z M15,45c0,2.75,2.25,5,5,5h65c2.75,0,5-2.25,5-5s-2.25-5-5-5H20
	C17.25,40,15,42.25,15,45z M0,62.5c0-2.75,2.25-5,5-5s5,2.25,5,5s-2.25,5-5,5S0,65.25,0,62.5z M15,62.5c0,2.75,2.25,5,5,5h65
	c2.75,0,5-2.25,5-5s-2.25-5-5-5H20C17.25,57.5,15,59.75,15,62.5z M0,80c0-2.75,2.25-5,5-5s5,2.25,5,5s-2.25,5-5,5S0,82.75,0,80z
	 M15,80c0,2.75,2.25,5,5,5h65c2.75,0,5-2.25,5-5s-2.25-5-5-5H20C17.25,75,15,77.25,15,80z"/>
</svg>
