<?xml version="1.0" encoding="iso-8859-1"?>
<!-- Generator: Adobe Illustrator 21.0.1, SVG Export Plug-In . SVG Version: 6.00 Build 0)  -->
<svg version="1.1" id="Capa_1" xmlns="http://www.w3.org/2000/svg" xmlns:xlink="http://www.w3.org/1999/xlink" x="0px" y="0px"
	 viewBox="0 0 90 90" style="enable-background:new 0 0 90 90;" xml:space="preserve">
<g>
	<path style="fill-rule:evenodd;clip-rule:evenodd;" d="M60.772,17.978V9.54h4.005v11.588L60.772,17.978z M50.153,58.298v21.06
		H40.095v-21.06H50.153z M56.182,52.155H34.47v27.202H18.225V34.853l26.707-22.568L71.865,35.1v44.257H56.182V52.155z M44.932,28.71
		c-1.372,0-2.587,0.518-3.645,1.53c-1.057,1.058-1.597,2.317-1.597,3.758c0,1.485,0.495,2.745,1.53,3.757
		c0.99,1.013,2.25,1.507,3.712,1.507c1.44,0,2.7-0.495,3.69-1.507c1.012-1.013,1.53-2.273,1.53-3.757c0-1.44-0.518-2.7-1.53-3.758
		C47.632,29.228,46.373,28.71,44.932,28.71z M69.368,5.13h-12.96v9.068L44.932,4.5L0,42.435l3.757,4.41l8.37-6.93V85.5h65.79V40.162
		l8.325,6.93L90,42.435L69.368,24.907V5.13z"/>
</g>
</svg>
