<?xml version="1.0" encoding="iso-8859-1"?>
<!-- Generator: Adobe Illustrator 21.0.1, SVG Export Plug-In . SVG Version: 6.00 Build 0)  -->
<svg version="1.1" id="Capa_1" xmlns="http://www.w3.org/2000/svg" xmlns:xlink="http://www.w3.org/1999/xlink" x="0px" y="0px"
	 viewBox="0 0 90 90" style="enable-background:new 0 0 90 90;" xml:space="preserve">
<g>
	<path d="M6.783,80.446C3.043,80.446,0,77.403,0,73.663V16.336c0-3.74,3.043-6.782,6.783-6.782h49.684
		c8.709,0,16.396,6.429,17.88,14.954l0.104,0.596l0.596,0.104C83.571,26.692,90,34.379,90,43.088v30.575
		c0,3.74-3.043,6.783-6.783,6.783H6.783z M5.923,63.345v11.18h77.46l-20.25-20.25l-15.27,7.633L29.382,42.273L5.923,63.345z
		 M84.08,66.569V43.09c0-7.027-5.299-12.326-12.326-12.326h-2.961v-2.961c0-7.027-5.299-12.326-12.326-12.326h-1.713L5.925,15.479
		v40.245l24.12-21.745l19.351,20.87l15.31-7.653L84.08,66.569z"/>
</g>
</svg>
