<?xml version="1.0" encoding="iso-8859-1"?>
<!-- Generator: Adobe Illustrator 21.0.1, SVG Export Plug-In . SVG Version: 6.00 Build 0)  -->
<svg version="1.1" id="Capa_1" xmlns="http://www.w3.org/2000/svg" xmlns:xlink="http://www.w3.org/1999/xlink" x="0px" y="0px"
	 viewBox="0 0 90 90" style="enable-background:new 0 0 90 90;" xml:space="preserve">
<path style="fill-rule:evenodd;clip-rule:evenodd;" d="M0,45C0,20.145,20.145,0,45,0s45,20.145,45,45S69.855,90,45,90S0,69.855,0,45
	z M51.265,36.163v-2.438h5.958v2.438H51.265z M51.265,30.111v-2.438h5.958v2.438H51.265z M41.838,30.111v3.615h3.521v-3.615H41.838z
	 M39.4,54.184v-2.438h11.667v2.438H39.4z M39.4,48.132v-2.448h17.917v2.448H39.4z M39.4,42.069v-2.438h17.917v2.438H39.4z
	 M39.4,36.163v-8.49h8.5v8.49H39.4z M34.91,23.621v36.031h28.563V23.621H34.91z M27.431,31.038v36.031h28.521v-4.052H31.494V31.038
	H27.431z M31.64,20.34h35v42.583h-7.323v7.417H24.16V27.767h7.479V20.34z"/>
</svg>
