<?xml version="1.0" encoding="iso-8859-1"?>
<!-- Generator: Adobe Illustrator 21.0.1, SVG Export Plug-In . SVG Version: 6.00 Build 0)  -->
<svg version="1.1" id="Capa_1" xmlns="http://www.w3.org/2000/svg" xmlns:xlink="http://www.w3.org/1999/xlink" x="0px" y="0px"
	 viewBox="0 0 90 90" style="enable-background:new 0 0 90 90;" xml:space="preserve">
<path style="fill-rule:evenodd;clip-rule:evenodd;" d="M56.775,17.85v-5.813h-4.744c-0.694,0-1.313-0.225-1.819-0.694
	c-0.488-0.469-0.731-1.069-0.731-1.762c0-1.294-0.431-2.381-1.313-3.263c-0.881-0.862-1.969-1.313-3.263-1.313
	c-1.219,0-2.306,0.45-3.206,1.313c-0.919,0.881-1.35,1.969-1.35,3.263c-0.131,0.637-0.412,1.238-0.862,1.725
	c-0.431,0.506-1.013,0.731-1.781,0.731h-4.65v5.813h23.55H56.775z M59.063,7.031c0.713,0,1.294,0.225,1.763,0.694
	c0.469,0.469,0.675,1.031,0.619,1.688v13.444H27.862V9.581c0-0.713,0.244-1.294,0.731-1.781C29.1,7.294,29.7,7.031,30.413,7.031
	h5.006C36,5.044,37.144,3.375,38.85,2.025C40.556,0.675,42.506,0,44.737,0s4.181,0.675,5.888,2.025s2.85,3.019,3.431,5.006H59.063z
	 M71.025,12.038c1.931,0,3.6,0.712,5.006,2.081c1.406,1.388,2.1,3.056,2.1,5.044v63.713c0,2.006-0.694,3.675-2.081,5.081
	C74.681,89.287,73.012,90,71.025,90H18.994c-2.006,0-3.694-0.713-5.081-2.044c-1.369-1.406-2.044-3.075-2.044-5.081V19.163
	c0-1.988,0.675-3.656,2.044-5.044c1.387-1.369,3.075-2.081,5.081-2.081h4.913v4.931h-4.913c-0.544,0-1.031,0.225-1.481,0.675
	c-0.431,0.431-0.638,0.938-0.638,1.519v63.713c0,0.525,0.206,1.031,0.638,1.463c0.45,0.412,0.938,0.656,1.481,0.656h52.031
	c0.581,0,1.069-0.244,1.481-0.656c0.412-0.431,0.619-0.938,0.619-1.463V19.163c0-0.581-0.206-1.087-0.619-1.519
	c-0.412-0.45-0.9-0.675-1.481-0.675h-5.287v-4.931H71.025z M25.05,68.738v5.006h5.006v-5.006H25.05z M35.775,68.738v5.006h29.362
	v-5.006H35.775z M25.05,34.106v5.006h5.006v-5.006H25.05z M35.775,34.106v5.006h29.362v-5.006H35.775z M25.05,45.694v5.025h5.006
	v-5.025H25.05z M35.775,45.694v5.025h29.362v-5.025H35.775z M25.05,57.3v5.006h5.006V57.3H25.05z M35.775,57.3v5.006h29.362V57.3
	H35.775z"/>
</svg>
