<?xml version="1.0" encoding="iso-8859-1"?>
<!-- Generator: Adobe Illustrator 21.0.1, SVG Export Plug-In . SVG Version: 6.00 Build 0)  -->
<svg version="1.1" id="Capa_1" xmlns="http://www.w3.org/2000/svg" xmlns:xlink="http://www.w3.org/1999/xlink" x="0px" y="0px"
	 viewBox="0 0 90 90" style="enable-background:new 0 0 90 90;" xml:space="preserve">
<path style="fill-rule:evenodd;clip-rule:evenodd;" d="M45,5.332C23.085,5.332,5.332,23.085,5.332,45S23.085,84.668,45,84.668
	S84.667,66.915,84.667,45S66.915,5.332,45,5.332z M90,45c0,24.863-20.137,45-45,45S0,69.863,0,45S20.137,0,45,0S90,20.138,90,45z
	 M46.305,19.327C45.428,20.205,45,21.263,45,22.5c0,1.26,0.428,2.317,1.305,3.195S48.24,27,49.5,27c1.237,0,2.295-0.427,3.172-1.305
	C53.55,24.817,54,23.76,54,22.5c0-1.237-0.45-2.295-1.305-3.173C51.818,18.45,50.76,18,49.5,18S47.137,18.45,46.305,19.327z
	 M51.232,31.5L38.25,33.75V36c0.562,0,1.08-0.045,1.507-0.045c0.923,0,1.62,0.225,2.16,0.652c0.518,0.405,0.788,0.9,0.788,1.463
	c0,0.877-0.315,2.182-0.878,3.915L35.64,59.94c-0.472,1.44-0.72,2.632-0.72,3.555c0,1.148,0.473,2.115,1.53,2.88
	c1.057,0.765,2.43,1.125,4.185,1.125c4.567,0,8.933-2.768,13.005-8.37l-2.25-0.63c-1.71,2.07-3.195,3.487-4.388,4.252
	c-0.45,0.36-0.922,0.495-1.372,0.495c-0.27,0-0.518-0.068-0.765-0.292c-0.248-0.203-0.36-0.405-0.36-0.653
	c0-0.495,0.225-1.508,0.697-3.128L53.505,31.5H51.232z"/>
</svg>
