<?xml version="1.0" encoding="iso-8859-1"?>
<!-- Generator: Adobe Illustrator 21.0.1, SVG Export Plug-In . SVG Version: 6.00 Build 0)  -->
<svg version="1.1" id="Capa_1" xmlns="http://www.w3.org/2000/svg" xmlns:xlink="http://www.w3.org/1999/xlink" x="0px" y="0px"
	 viewBox="0 0 90 90" style="enable-background:new 0 0 90 90;" xml:space="preserve">
<path style="fill-rule:evenodd;clip-rule:evenodd;" d="M55.556,28.481v-4.388h10.725v4.388H55.556z M55.556,17.587V13.2h10.725
	v4.387H55.556z M38.588,17.587v6.506h6.337v-6.506H38.588z M34.2,60.919v-4.388h21v4.388H34.2z M34.2,50.025v-4.406h32.25v4.406
	H34.2z M34.2,39.112v-4.388h32.25v4.388H34.2z M34.2,28.481V13.2h15.3v15.281H34.2z M26.119,5.906v64.856h51.412V5.906H26.119z
	 M12.656,19.256v64.856h51.338v-7.294H19.969V19.256H12.656z M20.231,0h63v76.65H70.05V90H6.769V13.369h13.463V0z"/>
</svg>
