<?xml version="1.0" encoding="iso-8859-1"?>
<!-- Generator: Adobe Illustrator 21.0.1, SVG Export Plug-In . SVG Version: 6.00 Build 0)  -->
<svg version="1.1" id="Capa_1" xmlns="http://www.w3.org/2000/svg" xmlns:xlink="http://www.w3.org/1999/xlink" x="0px" y="0px"
	 viewBox="0 0 90 90" style="enable-background:new 0 0 90 90;" xml:space="preserve">
<path d="M45,0C20.187,0,0,20.186,0,45s20.187,45,45,45s45-20.186,45-45S69.813,0,45,0z M45,83.868
	C23.568,83.868,6.132,66.431,6.132,45S23.568,6.132,45,6.132S83.869,23.569,83.869,45S66.432,83.868,45,83.868z M50.199,45.027
	l15.624,15.624c0.711,0.711,1.067,1.56,1.067,2.572s-0.356,1.888-1.067,2.6c-0.711,0.711-1.587,1.067-2.6,1.067
	s-1.861-0.356-2.572-1.067L45.027,50.199L29.403,65.823c-0.711,0.711-1.587,1.067-2.627,1.067c-1.012,0-1.888-0.356-2.6-1.067
	c-0.711-0.711-1.067-1.587-1.067-2.6s0.356-1.861,1.067-2.572l15.624-15.679l-15.624-15.57c-0.711-0.711-1.067-1.587-1.067-2.627
	c0-1.012,0.356-1.888,1.067-2.6s1.56-1.067,2.6-1.067c1.012,0,1.888,0.356,2.627,1.067l15.624,15.624l15.624-15.57
	c0.711-0.711,1.56-1.067,2.572-1.067s1.888,0.356,2.6,1.067c0.711,0.711,1.067,1.56,1.067,2.572c0,1.04-0.356,1.888-1.067,2.6
	L50.199,45.027z"/>
</svg>
