<?xml version="1.0" encoding="iso-8859-1"?>
<!-- Generator: Adobe Illustrator 21.0.1, SVG Export Plug-In . SVG Version: 6.00 Build 0)  -->
<svg version="1.1" id="Capa_1" xmlns="http://www.w3.org/2000/svg" xmlns:xlink="http://www.w3.org/1999/xlink" x="0px" y="0px"
	 viewBox="0 0 90 90" style="enable-background:new 0 0 90 90;" xml:space="preserve">
<path style="fill-rule:evenodd;clip-rule:evenodd;" d="M15.785,60.057l14.503,14.313l-16.009,5.313l-4.482-4.275L15.785,60.057z
	 M71.01,34.668L34.337,70.683l-5.382-5.313l36.811-36.309l-3.894-3.842L25.061,61.528l-5.988-5.902l36.811-36.309l-3.894-3.842
	L12.029,54.882c-0.294,0.294-0.45,0.606-0.588,1.038L0.209,85.445c-0.45,1.021-0.138,2.059,0.606,2.804
	c0.588,0.588,1.194,0.883,1.938,0.883c0.312,0,0.606,0,0.9-0.156l29.629-9.726c0.45-0.156,0.761-0.294,1.056-0.606l40.567-39.995
	L71.01,34.668z M84.18,21.688l-4.5,4.413L64.416,10.906l4.5-4.43c0.138-0.138,0.45-0.294,0.588-0.294c0.156,0,0.312,0,0.606,0.294
	l14.209,14.018c0.156,0.156,0.312,0.45,0.312,0.588C84.475,21.238,84.319,21.532,84.18,21.688z M88.074,16.669L73.848,2.634
	c-1.194-1.177-2.838-1.765-4.482-1.765c-1.661,0-3.306,0.588-4.5,1.765l-4.482,4.43l-3.894,3.842l23.347,22.879l3.894-3.842
	l4.482-4.43C90.618,23.159,90.618,19.179,88.074,16.669z"/>
</svg>
