<?xml version="1.0" encoding="iso-8859-1"?>
<!-- Generator: Adobe Illustrator 21.0.1, SVG Export Plug-In . SVG Version: 6.00 Build 0)  -->
<svg version="1.1" id="Capa_1" xmlns="http://www.w3.org/2000/svg" xmlns:xlink="http://www.w3.org/1999/xlink" x="0px" y="0px"
	 viewBox="0 0 90 90" style="enable-background:new 0 0 90 90;" xml:space="preserve">
<g>
	<path style="fill:#1D1D1B;" d="M43.584,40.057c-1.615-2.421-3.028-4.844-4.237-7.264c-1.413-2.622-2.219-5.851-2.219-8.879
		c0-10.695,8.678-19.373,19.373-19.373s19.373,8.678,19.373,19.373c0,3.028-0.806,6.053-2.219,8.879
		c-1.212,2.421-2.826,4.844-4.237,7.264h7.466L90,85.46H0l13.116-45.403h30.471L43.584,40.057z M56.498,20.485
		c2.018,0,3.431,1.615,3.431,3.431s-1.413,3.632-3.431,3.632c-2.018,0-3.431-1.615-3.431-3.431S54.682,20.485,56.498,20.485z
		 M44.39,30.17c3.632,7.063,8.476,13.519,12.108,20.38c3.632-7.063,8.678-13.519,12.108-20.38c1.01-2.018,1.413-4.035,1.413-6.254
		c0-7.466-6.053-13.723-13.723-13.723s-13.723,6.053-13.723,13.723C42.977,26.135,43.38,28.153,44.39,30.17z M65.982,45.707
		c-2.622,4.035-5.247,8.678-7.063,13.116h17.557l-3.834-13.116H65.982z M54.279,59.027c-1.615-4.237-4.642-9.282-7.063-13.116
		v13.116H54.279z M13.516,59.027h29.259V45.911H17.35L13.516,59.027z M77.687,63.263H47.216V79.81h35.312l-4.844-16.547H77.687z
		 M42.98,63.263H12.307L7.463,79.81h35.312V63.263H42.98z"/>
</g>
</svg>
