<?xml version="1.0" encoding="iso-8859-1"?>
<!-- Generator: Adobe Illustrator 21.0.1, SVG Export Plug-In . SVG Version: 6.00 Build 0)  -->
<svg version="1.1" id="Capa_1" xmlns="http://www.w3.org/2000/svg" xmlns:xlink="http://www.w3.org/1999/xlink" x="0px" y="0px"
	 viewBox="0 0 90 90" style="enable-background:new 0 0 90 90;" xml:space="preserve">
<path d="M69.002,13.259c10.952,7.606,18.126,20.269,18.126,34.614c0,23.817-19.764,43.017-43.786,42.096
	C22.119,89.154,4.582,72.299,2.994,51.12C1.818,35.433,9.244,21.401,21.039,13.23c2.61-1.808,6.228-0.823,7.648,2.016l0.001,0.002
	c1.155,2.31,0.49,5.156-1.634,6.625c-8.245,5.7-13.65,15.216-13.65,25.999c0,17.334,13.959,31.408,31.249,31.594
	c16.998,0.183,31.3-13.422,31.921-30.409c0.412-11.256-5.07-21.253-13.599-27.164c-2.134-1.479-2.825-4.32-1.664-6.643l0,0
	C62.739,12.394,66.378,11.436,69.002,13.259z M44.521,0c-2.908,0-5.266,2.358-5.266,5.266v33.511c0,2.908,2.358,5.266,5.266,5.266
	c2.908,0,5.266-2.358,5.266-5.266V5.266C49.787,2.358,47.43,0,44.521,0z"/>
</svg>
