<?xml version="1.0" encoding="iso-8859-1"?>
<!-- Generator: Adobe Illustrator 21.0.1, SVG Export Plug-In . SVG Version: 6.00 Build 0)  -->
<svg version="1.1" id="Capa_1" xmlns="http://www.w3.org/2000/svg" xmlns:xlink="http://www.w3.org/1999/xlink" x="0px" y="0px"
	 viewBox="0 0 90 90" style="enable-background:new 0 0 90 90;" xml:space="preserve">
<path style="fill-rule:evenodd;clip-rule:evenodd;" d="M0.131,44.996C0.131,20.146,20.217,0,45,0s44.869,20.146,44.869,44.996
	C89.869,69.854,69.783,90,45,90S0.131,69.854,0.131,44.996z M38.581,50.607H20.818c-0.407,0-0.738-0.33-0.738-0.738V39.821
	c0-0.407,0.33-0.738,0.738-0.738h17.763c0.407,0,0.738-0.33,0.738-0.738V20.583c0-0.407,0.33-0.738,0.738-0.738h10.048
	c0.407,0,0.738,0.33,0.738,0.738v17.763c0,0.407,0.33,0.738,0.738,0.738h17.763c0.407,0,0.738,0.33,0.738,0.738v10.048
	c0,0.407-0.33,0.738-0.738,0.738H51.58c-0.407,0-0.738,0.33-0.738,0.738v17.763c0,0.407-0.33,0.738-0.738,0.738H40.056
	c-0.407,0-0.738-0.33-0.738-0.738V51.344C39.319,50.937,38.988,50.607,38.581,50.607z"/>
</svg>
