<?xml version="1.0" encoding="iso-8859-1"?>
<!-- Generator: Adobe Illustrator 21.0.1, SVG Export Plug-In . SVG Version: 6.00 Build 0)  -->
<svg version="1.1" id="Capa_1" xmlns="http://www.w3.org/2000/svg" xmlns:xlink="http://www.w3.org/1999/xlink" x="0px" y="0px"
	 viewBox="0 0 90 90" style="enable-background:new 0 0 90 90;" xml:space="preserve">
<path style="fill-rule:evenodd;clip-rule:evenodd;" d="M33.49,83.053c0.563,0.703,1.181,1.406,1.842,2.109
	c0.633,0.703,1.322,1.364,2.025,2.025c-1.547,0.928-3.164,1.631-4.922,2.109C30.677,89.761,28.877,90,27.077,90h-1.406
	c-2.953,0-5.695-0.577-8.269-1.673c-2.587-1.111-4.837-2.63-6.764-4.57c-1.941-1.927-3.473-4.177-4.57-6.764
	c-1.125-2.573-1.673-5.316-1.673-8.269V21.263c0-2.911,0.548-5.667,1.673-8.255c1.097-2.573,2.63-4.837,4.57-6.764
	c1.927-1.941,4.177-3.459,6.764-4.57C19.976,0.577,22.718,0,25.671,0h1.406c2.911,0,5.667,0.577,8.213,1.673
	c2.545,1.111,4.767,2.63,6.68,4.57c1.884,1.927,3.389,4.191,4.486,6.764c1.069,2.587,1.575,5.344,1.533,8.255v11.081
	c-0.942,0.422-1.87,0.816-2.77,1.181c-0.914,0.394-1.772,0.816-2.587,1.28V21.263c0-4.317-1.547-8.03-4.57-11.109
	c-3.052-3.08-6.764-4.612-11.166-4.612h-1.406c-4.289,0-7.973,1.533-11.067,4.57c-3.122,3.052-4.669,6.764-4.669,11.152v20.925
	H34.01c-0.703,0.872-1.364,1.786-1.969,2.686c-0.619,0.914-1.195,1.842-1.716,2.756H9.935v21.094c0,4.359,1.519,8.044,4.57,11.123
	c3.023,3.08,6.764,4.612,11.166,4.612h1.406c1.097,0,2.194-0.112,3.291-0.352C31.437,83.897,32.477,83.545,33.49,83.053z
	 M58.451,35.775c3.727,0,7.27,0.703,10.589,2.109c3.291,1.406,6.173,3.333,8.606,5.794c2.419,2.461,4.359,5.358,5.808,8.663
	c1.42,3.319,2.152,6.806,2.152,10.505c0,3.755-0.731,7.284-2.152,10.589c-1.448,3.319-3.389,6.188-5.808,8.606
	c-2.433,2.419-5.316,4.359-8.606,5.808C65.721,89.269,62.177,90,58.451,90c-3.698,0-7.214-0.731-10.505-2.152
	c-3.319-1.448-6.202-3.389-8.663-5.808c-2.461-2.419-4.387-5.287-5.794-8.606C32.084,70.13,31.38,66.6,31.38,62.845
	c0-3.698,0.703-7.186,2.109-10.505c1.406-3.305,3.333-6.202,5.794-8.663s5.344-4.387,8.663-5.794
	C51.237,36.478,54.752,35.775,58.451,35.775z M36.921,62.845c0,2.939,0.52,5.709,1.617,8.297c1.083,2.616,2.602,4.88,4.528,6.82
	l26.198-34.017c-1.589-0.886-3.277-1.561-5.063-2.067c-1.8-0.478-3.642-0.745-5.583-0.745c-2.981,0-5.794,0.577-8.438,1.716
	c-2.63,1.139-4.936,2.7-6.891,4.655c-1.983,1.983-3.516,4.261-4.669,6.905C37.484,57.037,36.921,59.85,36.921,62.845z
	 M58.451,84.642c3.023,0,5.892-0.577,8.522-1.758c2.644-1.167,4.922-2.728,6.905-4.711c1.955-1.955,3.516-4.261,4.655-6.891
	c1.139-2.644,1.716-5.456,1.716-8.438c0-3.038-0.619-5.92-1.842-8.62c-1.238-2.672-2.883-5.034-4.922-7.031L47.201,81.38
	c1.617,1.013,3.403,1.814,5.316,2.377C54.401,84.347,56.384,84.642,58.451,84.642z"/>
</svg>
