<?xml version="1.0" encoding="iso-8859-1"?>
<!-- Generator: Adobe Illustrator 21.0.1, SVG Export Plug-In . SVG Version: 6.00 Build 0)  -->
<svg version="1.1" id="Capa_1" xmlns="http://www.w3.org/2000/svg" xmlns:xlink="http://www.w3.org/1999/xlink" x="0px" y="0px"
	 viewBox="0 0 90 90" style="enable-background:new 0 0 90 90;" xml:space="preserve">
<path style="fill-rule:evenodd;clip-rule:evenodd;" d="M0,45C0,20.145,20.145,0,45,0s45,20.145,45,45S69.855,90,45,90S0,69.855,0,45
	z M38.767,65.295c0.3,0.375,0.63,0.75,0.983,1.125c0.337,0.375,0.705,0.728,1.08,1.08c-0.825,0.495-1.688,0.87-2.625,1.125
	C37.267,68.872,36.307,69,35.347,69h-0.75c-1.575,0-3.037-0.308-4.41-0.893c-1.38-0.592-2.58-1.402-3.607-2.438
	c-1.035-1.027-1.853-2.227-2.438-3.607c-0.6-1.373-0.892-2.835-0.892-4.41V32.34c0-1.552,0.292-3.023,0.892-4.403
	c0.585-1.372,1.403-2.58,2.438-3.608c1.027-1.035,2.227-1.845,3.607-2.438C31.56,21.308,33.022,21,34.597,21h0.75
	c1.553,0,3.023,0.308,4.38,0.892c1.358,0.593,2.543,1.403,3.563,2.438c1.005,1.028,1.807,2.235,2.392,3.608
	c0.57,1.38,0.84,2.85,0.818,4.403v5.91c-0.503,0.225-0.998,0.435-1.478,0.63c-0.487,0.21-0.945,0.435-1.38,0.682V32.34
	c0-2.302-0.825-4.282-2.437-5.925c-1.628-1.643-3.608-2.46-5.955-2.46H34.5c-2.288,0-4.253,0.817-5.903,2.438
	c-1.665,1.628-2.49,3.608-2.49,5.948V43.5h12.938c-0.375,0.465-0.728,0.952-1.05,1.432c-0.33,0.487-0.638,0.983-0.915,1.47H26.205
	v11.25c0,2.325,0.81,4.29,2.437,5.932c1.613,1.643,3.608,2.46,5.955,2.46h0.75c0.585,0,1.17-0.06,1.755-0.188
	C37.672,65.745,38.227,65.558,38.767,65.295z M52.08,40.08c1.987,0,3.877,0.375,5.647,1.125c1.755,0.75,3.293,1.777,4.59,3.09
	c1.29,1.313,2.325,2.858,3.098,4.62c0.757,1.77,1.147,3.63,1.147,5.603c0,2.002-0.39,3.885-1.147,5.647
	c-0.773,1.77-1.808,3.3-3.098,4.59c-1.297,1.29-2.835,2.325-4.59,3.098C55.957,68.61,54.067,69,52.08,69
	c-1.973,0-3.848-0.39-5.603-1.147c-1.77-0.772-3.307-1.808-4.62-3.098c-1.312-1.29-2.34-2.82-3.09-4.59
	c-0.75-1.763-1.125-3.645-1.125-5.647c0-1.973,0.375-3.833,1.125-5.603c0.75-1.763,1.778-3.308,3.09-4.62
	c1.313-1.313,2.85-2.34,4.62-3.09C48.232,40.455,50.107,40.08,52.08,40.08z M40.597,54.518c0,1.567,0.278,3.045,0.863,4.425
	c0.577,1.395,1.387,2.602,2.415,3.638l13.972-18.143c-0.847-0.472-1.747-0.833-2.7-1.103c-0.96-0.255-1.942-0.397-2.977-0.397
	c-1.59,0-3.09,0.307-4.5,0.915c-1.403,0.607-2.633,1.44-3.675,2.482c-1.058,1.058-1.875,2.272-2.49,3.683
	C40.897,51.42,40.597,52.92,40.597,54.518z M52.08,66.143c1.612,0,3.142-0.308,4.545-0.938c1.41-0.623,2.625-1.455,3.682-2.513
	c1.043-1.042,1.875-2.273,2.483-3.675c0.607-1.41,0.915-2.91,0.915-4.5c0-1.62-0.33-3.158-0.983-4.598
	c-0.66-1.425-1.537-2.685-2.625-3.75L46.08,64.402c0.862,0.54,1.815,0.968,2.835,1.268C49.92,65.985,50.977,66.143,52.08,66.143z"/>
</svg>
