<?xml version="1.0" encoding="iso-8859-1"?>
<!-- Generator: Adobe Illustrator 21.0.1, SVG Export Plug-In . SVG Version: 6.00 Build 0)  -->
<svg version="1.1" id="Capa_1" xmlns="http://www.w3.org/2000/svg" xmlns:xlink="http://www.w3.org/1999/xlink" x="0px" y="0px"
	 viewBox="0 0 90 90" style="enable-background:new 0 0 90 90;" xml:space="preserve">
<g>
	<path style="fill-rule:evenodd;clip-rule:evenodd;" d="M63.326,63.697h11.61v5.04h-11.61v5.625h5.985v4.995h-5.985v5.625h11.61V90
		l-16.627-0.18V0h16.627v4.995h-11.61v5.625h5.985v5.017h-5.985v5.625h11.61v4.995h-11.61v5.625h5.985v5.04h-5.985v5.513h11.61
		v5.085h-11.61v5.557h5.985v4.995h-5.985V63.697z M40.016,28.823c2.813,0,5.22,1.035,7.245,2.993c2.048,2.003,3.06,4.387,3.127,7.2
		v19.417c0,2.318-0.697,4.365-2.092,6.188c-1.417,1.822-3.217,3.015-5.355,3.577V90h-5.017V63.518h2.272
		c1.417,0,2.61-0.473,3.667-1.463c1.013-0.99,1.53-2.228,1.53-3.623V39.015c0-1.395-0.517-2.587-1.53-3.645
		c-1.057-1.013-2.25-1.552-3.667-1.552h-14.94c-1.462,0-2.7,0.54-3.69,1.552c-0.99,1.058-1.485,2.25-1.485,3.645v19.417
		c0,1.395,0.495,2.632,1.485,3.623c0.99,0.99,2.228,1.463,3.69,1.463h2.295V90h-4.995V68.198c-2.182-0.563-3.983-1.755-5.378-3.577
		c-1.417-1.823-2.115-3.87-2.115-6.188V39.015c0-2.813,0.99-5.197,2.992-7.2c1.958-1.958,4.388-2.993,7.2-2.993H40.016z
		 M32.749,4.995c-1.89,0-3.51,0.675-4.86,2.003c-1.327,1.327-2.003,2.925-1.935,4.77c0,1.913,0.653,3.488,1.98,4.792
		c1.327,1.328,2.925,1.958,4.815,1.958c1.868,0,3.443-0.63,4.77-1.958c1.305-1.305,1.98-2.88,1.98-4.792
		c0-1.845-0.675-3.443-1.98-4.77C36.191,5.67,34.616,4.995,32.749,4.995z M32.749,23.625c-3.307,0-6.12-1.125-8.437-3.442
		c-2.363-2.318-3.51-5.108-3.51-8.415c0-3.217,1.147-5.963,3.51-8.28c2.317-2.318,5.13-3.42,8.437-3.307
		c3.195,0,5.985,1.148,8.303,3.442c2.318,2.273,3.465,5.063,3.465,8.325c0,3.24-1.147,5.985-3.443,8.257
		C38.801,22.5,36.011,23.625,32.749,23.625z"/>
</g>
</svg>
