<?xml version="1.0" encoding="iso-8859-1"?>
<!-- Generator: Adobe Illustrator 21.0.1, SVG Export Plug-In . SVG Version: 6.00 Build 0)  -->
<svg version="1.1" id="Capa_1" xmlns="http://www.w3.org/2000/svg" xmlns:xlink="http://www.w3.org/1999/xlink" x="0px" y="0px"
	 viewBox="0 0 90 90" style="enable-background:new 0 0 90 90;" xml:space="preserve">
<path style="fill-rule:evenodd;clip-rule:evenodd;" d="M0.131,45C0.131,20.217,20.217,0.131,45,0.131S89.869,20.217,89.869,45
	S69.783,89.869,45,89.869S0.131,69.783,0.131,45z M55.14,35.705c-1.683,0-3.044,1.361-3.044,3.036c0,1.683,1.361,3.044,3.044,3.044
	c1.683,0,3.044-1.361,3.044-3.044C58.184,37.066,56.823,35.705,55.14,35.705z M37.903,38.741c0,1.683-1.361,3.044-3.044,3.044
	c-1.683,0-3.044-1.361-3.044-3.044c0-1.675,1.361-3.036,3.044-3.036C36.542,35.705,37.903,37.066,37.903,38.741z M71.361,45
	c0,14.56-11.801,26.361-26.361,26.361S18.639,59.56,18.639,45S30.44,18.639,45,18.639S71.361,30.44,71.361,45z M45,15.087
	c-16.519,0-29.913,13.393-29.913,29.913S28.481,74.913,45,74.913S74.913,61.519,74.913,45S61.519,15.087,45,15.087z M28.735,51.237
	c0.86,1.57,1.907,2.984,3.156,4.233c1.675,1.668,3.634,2.984,5.885,3.948c2.258,0.965,4.651,1.443,7.194,1.443
	c2.58,0,4.988-0.479,7.224-1.443c2.236-0.965,4.195-2.281,5.885-3.948c1.264-1.249,2.318-2.655,3.178-4.225
	c0.471-0.875,0.082-1.967-0.83-2.348l-0.015-0.007c-0.793-0.337-1.705,0-2.116,0.755c-0.695,1.286-1.555,2.438-2.587,3.455
	c-1.376,1.361-2.984,2.445-4.823,3.246c-1.832,0.793-3.806,1.197-5.915,1.197c-2.071,0-4.031-0.404-5.885-1.197
	c-1.855-0.8-3.462-1.885-4.823-3.246c-1.017-1.017-1.877-2.169-2.58-3.462c-0.411-0.755-1.324-1.084-2.116-0.748
	C28.653,49.278,28.271,50.369,28.735,51.237z"/>
</svg>
