<?xml version="1.0" encoding="iso-8859-1"?>
<!-- Generator: Adobe Illustrator 21.0.1, SVG Export Plug-In . SVG Version: 6.00 Build 0)  -->
<svg version="1.1" id="Capa_1" xmlns="http://www.w3.org/2000/svg" xmlns:xlink="http://www.w3.org/1999/xlink" x="0px" y="0px"
	 viewBox="0 0 90 90" style="enable-background:new 0 0 90 90;" xml:space="preserve">
<g>
	<path style="fill-rule:evenodd;clip-rule:evenodd;" d="M60.255,31.005c-2.52,0-4.568,2.048-4.568,4.59
		c0,2.52,2.048,4.567,4.568,4.567s4.568-2.047,4.568-4.567C64.823,33.053,62.775,31.005,60.255,31.005z M29.745,31.005
		c-2.52,0-4.568,2.048-4.568,4.59c0,2.52,2.048,4.567,4.568,4.567s4.567-2.047,4.567-4.567
		C34.312,33.053,32.265,31.005,29.745,31.005z M45,5.332C23.085,5.332,5.332,23.085,5.332,45S23.085,84.668,45,84.668
		S84.668,66.915,84.668,45S66.915,5.332,45,5.332z M90,45c0,24.863-20.138,45-45,45S0,69.863,0,45S20.137,0,45,0S90,20.138,90,45z
		 M21.78,50.85c1.192-0.495,2.565,0,3.195,1.125c1.057,1.935,2.34,3.668,3.87,5.198c2.048,2.07,4.477,3.69,7.267,4.882
		c2.768,1.215,5.738,1.8,8.843,1.8c3.172,0,6.142-0.585,8.91-1.8c2.745-1.193,5.175-2.813,7.245-4.882
		c1.552-1.507,2.857-3.24,3.893-5.175c0.607-1.148,1.98-1.643,3.195-1.148l0,0c1.372,0.585,1.98,2.228,1.26,3.533
		c-1.282,2.362-2.88,4.5-4.77,6.368c-2.542,2.52-5.512,4.5-8.865,5.94c-3.352,1.462-6.975,2.182-10.867,2.182
		c-3.825,0-7.425-0.72-10.823-2.182c-3.397-1.44-6.345-3.42-8.842-5.94c-1.89-1.89-3.465-4.005-4.748-6.368
		C19.823,53.077,20.407,51.435,21.78,50.85z"/>
</g>
</svg>
