<?xml version="1.0" encoding="iso-8859-1"?>
<!-- Generator: Adobe Illustrator 21.0.1, SVG Export Plug-In . SVG Version: 6.00 Build 0)  -->
<svg version="1.1" id="Capa_1" xmlns="http://www.w3.org/2000/svg" xmlns:xlink="http://www.w3.org/1999/xlink" x="0px" y="0px"
	 viewBox="0 0 90 90" style="enable-background:new 0 0 90 90;" xml:space="preserve">
<path d="M45,0C20.187,0,0,20.186,0,45s20.187,45,45,45s45-20.186,45-45S69.813,0,45,0z M62.074,24.336l3.859,3.051
	c0.056,0.056,0.111,0.125,0.153,0.209c0.056,0.084,0.084,0.167,0.084,0.237c0.014,0.111,0.014,0.223,0,0.32
	c-0.028,0.098-0.07,0.181-0.125,0.265L40.772,62.927c-0.056,0.084-0.139,0.139-0.223,0.195l-0.293,0.098h-0.056
	c-0.098,0-0.195-0.028-0.279-0.056c-0.084-0.056-0.153-0.098-0.195-0.153L25.977,48.758c-0.056-0.084-0.098-0.153-0.139-0.251
	c-0.042-0.07-0.056-0.153-0.056-0.237c0-0.111,0.014-0.209,0.056-0.293s0.084-0.153,0.139-0.209l3.413-3.581
	c0.139-0.139,0.307-0.209,0.502-0.209s0.362,0.07,0.502,0.209l9.265,9.599l21.427-29.285c0.098-0.167,0.251-0.265,0.446-0.293
	C61.726,24.196,61.907,24.224,62.074,24.336z"/>
</svg>
