<?xml version="1.0" encoding="iso-8859-1"?>
<!-- Generator: Adobe Illustrator 21.0.1, SVG Export Plug-In . SVG Version: 6.00 Build 0)  -->
<svg version="1.1" id="Capa_1" xmlns="http://www.w3.org/2000/svg" xmlns:xlink="http://www.w3.org/1999/xlink" x="0px" y="0px"
	 viewBox="0 0 90 90" style="enable-background:new 0 0 90 90;" xml:space="preserve">
<g>
	<path style="fill-rule:evenodd;clip-rule:evenodd;" d="M42.216,23.904H42.06c-0.144,0-0.3,0.144-0.444,0.444
		c-0.456,1.212-0.156,3.468,0.744,6.036C42.972,26.16,42.516,24.348,42.216,23.904z M43.272,41.076
		c-1.512,4.98-3.312,10.404-5.424,15.372c4.212-1.656,8.88-3.012,13.104-4.068C48.24,49.068,45.528,45.156,43.272,41.076z
		 M58.032,54.492c1.656,1.212,3.156,1.956,4.212,1.956c0.456,0,1.056-0.144,1.656-1.044c0.3-0.456,0.456-0.756,0.456-0.912
		c-0.312-0.144-0.912-0.456-2.712-0.456C60.588,54.192,59.376,54.348,58.032,54.492z M30.768,63.384
		c-4.368,2.412-6.024,4.368-6.168,5.58c0,0.144-0.156,0.6,0.9,1.356C25.8,70.32,27.612,69.408,30.768,63.384z M25.5,73.788
		c-0.756,0-1.356-0.3-1.956-0.612c-2.112-1.5-2.412-3.312-2.256-4.512c0.3-3.324,4.356-6.78,12.036-10.248
		c3.012-6.636,5.88-14.928,7.68-21.708c-1.956-4.368-3.912-10.092-2.556-13.416c0.456-1.2,1.356-1.956,2.556-2.4
		c0.456-0.156,0.912-0.312,1.356-0.312c1.056,0,1.968,0.456,2.568,1.212c0.6,0.756,2.412,3.012-0.3,14.472
		c2.712,5.568,6.624,11.448,10.236,15.372c2.712-0.456,4.968-0.756,6.78-0.756c3.156,0,5.112,0.756,5.868,2.256
		c0.6,1.212,0.456,2.712-0.756,4.368c-1.044,1.512-2.712,2.412-4.512,2.412c-2.412,0-5.268-1.5-8.58-4.668
		c-5.724,1.2-12.504,3.312-17.928,5.724c-1.656,3.624-3.312,6.48-4.812,8.592C28.968,72.432,27.156,73.788,25.5,73.788z
		 M71.568,20.496L59.316,8.244v10.752c0,0.828,0.672,1.5,1.5,1.5H71.568z M74.952,83.892V26.76c0-0.78-0.636-1.416-1.416-1.416
		H58.512c-2.232,0-4.044-1.812-4.044-4.044V6.324c0-0.816-0.66-1.476-1.476-1.476H16.308c-0.78,0-1.416,0.636-1.416,1.416v77.628
		c0,0.78,0.636,1.404,1.416,1.404h57.228C74.316,85.296,74.952,84.672,74.952,83.892z M10.2,85.476V4.524
		C10.2,2.028,12.228,0,14.724,0h41.88c0.804,0,1.572,0.324,2.148,0.888l20.16,20.184c0.564,0.564,0.888,1.332,0.888,2.136v62.268
		c0,2.496-2.028,4.524-4.524,4.524H14.724C12.228,90,10.2,87.972,10.2,85.476z"/>
</g>
</svg>
