<?xml version="1.0" encoding="iso-8859-1"?>
<!-- Generator: Adobe Illustrator 21.0.1, SVG Export Plug-In . SVG Version: 6.00 Build 0)  -->
<svg version="1.1" id="Capa_1" xmlns="http://www.w3.org/2000/svg" xmlns:xlink="http://www.w3.org/1999/xlink" x="0px" y="0px"
	 viewBox="0 0 90 90" style="enable-background:new 0 0 90 90;" xml:space="preserve">
<g>
	<path style="fill-rule:evenodd;clip-rule:evenodd;" d="M55.778,49.837c-0.338,0.315-0.608,0.63-0.788,0.967
		c-0.18,0.36-0.27,0.765-0.27,1.148V65.25c-1.395,1.057-2.925,1.89-4.59,2.52c-1.665,0.607-3.375,0.923-5.04,0.923
		c-1.845,0-3.555-0.27-5.22-0.833c-1.665-0.54-3.15-1.417-4.433-2.61V51.952c0-0.382-0.09-0.788-0.248-1.238
		c-0.18-0.382-0.45-0.787-0.787-1.125c-2.723-2.565-4.657-5.692-5.873-9.292c-1.238-3.622-1.845-7.268-1.845-11.07
		c0-3.082,0.248-6.12,0.787-9.022c0.518-2.902,1.485-5.4,2.88-7.515c1.147-1.688,2.722-3.128,4.748-4.365
		c1.958-1.192,4.515-1.711,7.627-2.07c0.585-0.068,4.79-0.28,7.71,0.432c1.231,0.3,3.153,0.865,4.732,1.682
		c3.455,1.755,4.028,2.993,4.028,2.993c1.935,2.385,3.15,5.242,3.69,8.617c0.518,3.443,0.788,6.57,0.788,9.428
		c0,3.667-0.653,7.313-1.89,11.003C60.525,44.122,58.5,47.295,55.778,49.837z M4.5,90h5.783c0-8.1,1.62-13.162,4.905-15.277
		c3.24-2.07,8.325-3.825,15.165-5.333c1.935,1.845,4.162,3.262,6.705,4.23c2.542,1.012,5.13,1.507,7.853,1.507
		c2.632,0,5.22-0.495,7.763-1.463s4.77-2.385,6.705-4.275c6.75,1.507,11.835,3.262,15.165,5.333
		c3.33,2.115,4.995,7.177,4.995,15.277H85.5c0-5.198-0.473-9.247-1.44-12.33c-0.967-3.037-2.497-5.467-4.522-7.313
		c-2.048-1.8-4.635-3.173-7.762-4.14c-3.15-0.923-6.885-1.89-11.25-2.903V53.46c3.06-3.217,5.332-6.93,6.795-11.138
		c1.395-4.185,2.137-8.505,2.137-12.915c0-3.735-0.315-7.358-0.877-10.778c-0.607-3.442-1.8-6.48-3.6-9.202
		c-1.845-2.857-4.343-5.152-7.538-6.862C54.202,0.877,50.085,0,45.09,0c-5.04,0-9.112,0.832-12.285,2.52
		c-3.15,1.665-5.783,3.915-7.785,6.728c-1.71,2.722-2.903,5.805-3.51,9.248c-0.653,3.487-0.968,7.042-0.968,10.733
		c0,4.41,0.743,8.73,2.228,12.915c1.507,4.23,3.735,7.92,6.705,11.137v9.855c-4.32,0.968-8.055,1.89-11.205,2.858
		c-3.173,0.99-5.783,2.385-7.808,4.14c-2.07,1.823-3.555,4.23-4.522,7.268C4.972,80.482,4.5,84.533,4.5,89.73V90z"/>
</g>
</svg>
