<?xml version="1.0" encoding="iso-8859-1"?>
<!-- Generator: Adobe Illustrator 21.0.1, SVG Export Plug-In . SVG Version: 6.00 Build 0)  -->
<svg version="1.1" id="Capa_1" xmlns="http://www.w3.org/2000/svg" xmlns:xlink="http://www.w3.org/1999/xlink" x="0px" y="0px"
	 viewBox="0 0 90 90" style="enable-background:new 0 0 90 90;" xml:space="preserve">
<path style="fill-rule:evenodd;clip-rule:evenodd;" d="M19.669,25.875C19.669,11.587,31.013,0,45,0s25.331,11.587,25.331,25.875
	S58.987,51.75,45,51.75S19.669,40.162,19.669,25.875z M28.481,25.875C28.481,16.556,35.888,9,45,9s16.519,7.556,16.519,16.875
	S54.112,42.75,45,42.75S28.481,35.194,28.481,25.875z M22.969,56.25c-12.169,0-22.031,10.088-22.031,22.5V90H9.75V78.75
	c0-7.444,5.925-13.5,13.219-13.5h44.063c7.294,0,13.219,6.056,13.219,13.5V90h8.813V78.75c0-12.412-9.863-22.5-22.031-22.5H22.969z"
	/>
</svg>
