<?xml version="1.0" encoding="iso-8859-1"?>
<!-- Generator: Adobe Illustrator 21.0.1, SVG Export Plug-In . SVG Version: 6.00 Build 0)  -->
<svg version="1.1" id="Capa_1" xmlns="http://www.w3.org/2000/svg" xmlns:xlink="http://www.w3.org/1999/xlink" x="0px" y="0px"
	 viewBox="0 0 90 90" style="enable-background:new 0 0 90 90;" xml:space="preserve">
<path style="fill-rule:evenodd;clip-rule:evenodd;" d="M0.131,44.996C0.131,20.146,20.217,0,45,0s44.869,20.146,44.869,44.996
	C89.869,69.854,69.783,90,45,90S0.131,69.854,0.131,44.996z M52.344,41.145c-3.575,0-4.061-0.464-5.033,4.786v3.866
	c0,0.307,0.651,14.837,1.301,22.098c0.157,1.855,1.944,3.246,3.732,3.246c1.458,0,3.567-1.234,3.732-3.246
	c0.651-8.039,1.458-23.646,1.458-24.11c0-1.541-0.486-5.87-2.109-6.491C54.452,40.988,52.83,41.145,52.344,41.145z M50.07,43
	c-0.322,1.077-0.486,2.161-0.815,3.246v3.246c0,0.307,0.494,11.741,0.98,17.611c0.157,1.705-0.329,4.023,0.643,5.414
	c0.165,0.307,0.815,0.77,1.466,0.77c0.808,0,1.787-0.464,1.787-1.548c0.808-7.882,1.458-23.489,1.458-23.953
	c0-1.698-0.165-2.931-0.815-4.786H50.07z M52.344,34.407c-0.329,0-2.438-0.314-3.41,0.15c-0.651,0.157-0.808,0.927-0.972,1.241
	v3.246c0,1.855,3.567,1.391,4.382,1.391c2.43,0,4.547,0.613,4.547-3.096C56.89,33.786,55.268,34.407,52.344,34.407z M49.906,36.262
	v2.318h5.033v-2.318H49.906z M50.392,15.315c-2.43,0-1.78,2.782-1.623,4.016c-0.157,3.709-2.759,5.1-2.759,8.346
	c0,3.096,2.602,6.027,6.334,6.027c3.41,0,6.491-2.625,6.491-6.177c0-2.782-3.081-7.882-5.197-9.894
	C52.344,16.243,51.528,15.315,50.392,15.315z M50.556,17.17c0.165,0.77,0.165,1.698,0.165,2.475c0,1.391-0.651,2.782-1.301,4.173
	c-0.651,1.541-1.458,2.468-1.458,3.859c0,2.169,1.944,4.173,4.382,4.173c2.109,0,4.547-1.541,4.547-4.173
	C56.89,24.588,52.994,19.488,50.556,17.17z M37.828,27.894l-2.109-0.007l-2.528,4.951l6.962,0.12L37.828,27.894z M31.195,65.771
	l-0.03-33.031c-0.007-0.142,0.037-0.247,0.105-0.389l4.711-9.093c0.03-0.105,0.105-0.172,0.172-0.239
	c0.179-0.165,0.396-0.232,0.673-0.224c0.359,0.015,0.681,0.194,0.823,0.538l4.539,9.617c0.075,0.142,0.112,0.247,0.112,0.389
	l0.224,32.56H40.64l-0.179-31.117l-2.864-0.045l0.135,31.169h-1.899l-0.105-31.192l-2.602-0.045l0.022,31.132L31.195,65.771z
	 M33.214,72.509c0.03,0.037,0.142,0.067,0.224,0.067l6.977-0.045c0.142,0,0.179-0.037,0.217-0.075
	c0.037-0.037,0.075-0.15,0.075-0.224l-0.022-2.191H33.17v2.206C33.177,72.322,33.214,72.434,33.214,72.509z M31.21,72.299
	l-0.007-2.206v-1.914l11.382-0.075l0.022,1.892l0.03,2.191c0.007,0.583-0.239,1.129-0.643,1.541
	c-0.396,0.404-0.935,0.666-1.518,0.673l-7,0.06C32.212,74.475,31.21,73.481,31.21,72.299z"/>
</svg>
