<?xml version="1.0" encoding="iso-8859-1"?>
<!-- Generator: Adobe Illustrator 21.0.1, SVG Export Plug-In . SVG Version: 6.00 Build 0)  -->
<svg version="1.1" id="Capa_1" xmlns="http://www.w3.org/2000/svg" xmlns:xlink="http://www.w3.org/1999/xlink" x="0px" y="0px"
	 viewBox="0 0 90 90" style="enable-background:new 0 0 90 90;" xml:space="preserve">
<path style="fill-rule:evenodd;clip-rule:evenodd;" d="M0.131,44.996C0.131,20.146,20.217,0,45,0s44.869,20.146,44.869,44.996
	C89.869,69.854,69.783,90,45,90S0.131,69.854,0.131,44.996z M52.934,29.629H51.05c-0.052-0.344-0.172-0.695-0.344-1.077
	c-0.172-0.366-0.359-0.695-0.516-0.987l1.376-1.458l-1.974-1.974l-1.376,1.369c-0.359-0.157-0.718-0.344-1.084-0.501
	c-0.381-0.165-0.733-0.292-1.077-0.359v-1.885h-2.916v1.885c-0.359,0.067-0.718,0.194-1.092,0.359
	c-0.366,0.157-0.733,0.344-1.054,0.501l-1.376-1.369l-1.982,2.146l1.376,1.369c-0.187,0.359-0.366,0.703-0.531,1.047
	c-0.157,0.344-0.284,0.71-0.344,1.099h-1.885v2.924h1.885c0.06,0.344,0.187,0.695,0.344,1.077c0.165,0.374,0.344,0.71,0.531,0.987
	l-1.376,1.286l1.982,1.967l1.376-1.376c0.322,0.239,0.688,0.441,1.054,0.606c0.374,0.179,0.733,0.292,1.092,0.344v1.899h2.916
	v-1.899c0.344-0.052,0.695-0.165,1.077-0.344c0.366-0.165,0.725-0.366,1.084-0.606l1.376,1.376l1.974-1.967l-1.376-1.369
	c0.157-0.344,0.344-0.688,0.516-1.025c0.172-0.344,0.292-0.725,0.344-1.137h1.885V29.629z M55.948,49.02l1.032-2.647l-1.451-0.606
	v-0.606V44.66l1.376-0.695l-1.122-2.572L54.31,41.99c-0.105-0.105-0.224-0.247-0.344-0.381c-0.105-0.142-0.224-0.277-0.344-0.389
	l0.613-1.555l-2.67-0.935l-0.591,1.466h-0.224h-0.307h-0.299h-0.307l-0.688-1.376l-2.572,1.114l0.606,1.458
	c-0.12,0.12-0.262,0.247-0.396,0.351c-0.142,0.112-0.284,0.217-0.389,0.329l-1.197-0.509l-1.032,2.655l1.376,0.598v0.613v0.606
	l-1.376,0.583l1.114,2.67l1.555-0.688c0.105,0.172,0.224,0.337,0.329,0.441c0.112,0.112,0.232,0.217,0.359,0.329l-0.606,1.548
	l2.67,0.95l0.598-1.466h0.217h0.299h0.292h0.322l0.688,1.369l2.572-1.114l-0.613-1.369c0.052-0.172,0.15-0.322,0.269-0.426
	c0.105-0.112,0.224-0.292,0.344-0.523L55.948,49.02z M41.844,33.831c-0.748-0.74-1.122-1.623-1.122-2.67
	c0-1.069,0.389-1.974,1.159-2.685c0.77-0.718,1.653-1.084,2.632-1.084c1.084,0,1.989,0.374,2.715,1.122
	c0.71,0.74,1.062,1.638,1.062,2.647c0,1.099-0.351,1.997-1.062,2.715c-0.725,0.71-1.63,1.069-2.715,1.069
	C43.467,34.946,42.585,34.579,41.844,33.831z M51.865,47.143c-0.374,0.232-0.785,0.344-1.234,0.344H50.19
	c-0.12,0-0.292-0.03-0.516-0.082c-0.232-0.105-0.464-0.269-0.681-0.486c-0.239-0.179-0.419-0.464-0.531-0.808
	c-0.172-0.217-0.247-0.494-0.247-0.808c0-0.314,0.075-0.613,0.247-0.905c0.165-0.456,0.441-0.8,0.808-1.032
	c0.381-0.217,0.83-0.337,1.361-0.337h0.322c0.12,0,0.292,0.022,0.523,0.075c0.583,0.292,0.98,0.71,1.219,1.294
	c0.217,0.583,0.217,1.144,0,1.713C52.516,46.582,52.231,46.918,51.865,47.143z M66.522,72.262c-0.105,0.381-0.314,0.688-0.591,0.905
	c-0.284,0.172-0.628,0.194-1.025,0.082c-0.419-0.105-0.688-0.322-0.86-0.606c-0.12-0.224-0.232-0.426-0.314-0.591
	c-0.082-0.165-0.247-0.344-0.464-0.516c-0.98-1.66-2.236-3.963-3.747-6.917c-1.518-2.931-2.027-5.668-1.503-8.204
	c0.277-1.713,0.763-3.268,1.421-4.644c0.658-1.369,1.361-2.752,2.109-4.12c0.905-1.705,1.765-3.53,2.572-5.474
	c0.793-1.959,1.204-4.278,1.204-6.97c0-2.572-0.509-4.928-1.496-7.074c-1.01-2.146-2.371-4.031-4.091-5.639
	c-1.787-1.593-3.911-2.857-6.379-3.769c-2.46-0.92-5.093-1.383-7.897-1.383c-0.583,0-1.189,0.045-1.825,0.097
	c-0.628,0.06-1.197,0.142-1.713,0.247c-2.303,0.471-4.479,1.286-6.543,2.453c-2.071,1.174-3.844,2.565-5.324,4.158
	c-1.503,1.555-2.715,3.283-3.627,5.205c-0.912,1.929-1.376,3.829-1.376,5.706c0,0.351,0.022,0.695,0.045,1.039
	c0.03,0.344,0.082,0.718,0.135,1.099c0.165,0.815-0.135,1.952-0.905,3.41l-2.535,4.749c-0.411,0.636-0.8,1.264-1.167,1.899
	c-0.374,0.636-0.71,1.249-0.98,1.885c-0.075,0.12-0.075,0.194-0.022,0.217l0.269,0.127c0.292,0.052,0.688,0.142,1.211,0.262
	c0.509,0.105,0.965,0.224,1.376,0.344c0.224,0.052,0.426,0.097,0.591,0.12c0.172,0.03,0.322,0.082,0.441,0.142
	c0.396,0.052,0.703,0.254,0.897,0.598c0.187,0.344,0.277,0.695,0.224,1.017v0.142c0,0.03-0.037,0.06-0.09,0.127
	c-0.052,0.12-0.105,0.254-0.135,0.389c-0.03,0.142-0.067,0.269-0.127,0.374c-0.052,0.239-0.135,0.464-0.224,0.688l-0.284,0.867
	c0.06,0,0.127,0.007,0.209,0.037c0.075,0.03,0.194,0.045,0.299,0.045c0.277,0.052,0.598,0.12,0.942,0.172
	c0.344,0.06,0.658,0.09,0.957,0.09c0.337,0,0.651,0.15,0.935,0.419c0.292,0.292,0.441,0.666,0.441,1.122
	c0,0.351-0.15,0.666-0.441,0.95c-0.284,0.277-0.658,0.419-1.107,0.419c-0.239,0-0.486-0.022-0.733-0.082
	c-0.269-0.06-0.568-0.082-0.905-0.082c0.628,0.523,0.92,1.084,0.86,1.72c-0.052,0.636-0.179,1.324-0.344,2.057
	c-0.127,0.419-0.202,0.8-0.254,1.174c-0.06,0.366,0,0.725,0.172,1.054c0.449,0.808,1.675,1.406,3.694,1.772
	c2.012,0.374,3.866,0.673,5.601,0.89c0.224,0.06,0.456,0.112,0.688,0.142c0.224,0.022,0.374,0.045,0.426,0.045
	c0.853,0.105,1.593,0.299,2.229,0.546c0.636,0.262,1.174,0.651,1.638,1.167c0.456,0.464,0.882,1.047,1.294,1.757
	c0.396,0.71,0.86,1.593,1.376,2.61c0.172,0.419,0.187,0.785,0.045,1.129c-0.15,0.344-0.419,0.606-0.808,0.763
	c-0.366,0.187-0.703,0.194-1.047,0.045c-0.344-0.135-0.636-0.411-0.86-0.808c-0.411-0.905-0.763-1.683-1.069-2.281
	c-0.322-0.606-0.621-1.047-0.912-1.331c-0.232-0.224-0.546-0.419-0.95-0.553c-0.396-0.135-0.823-0.247-1.279-0.307
	c-0.292-0.052-0.523-0.097-0.688-0.135c-0.179-0.03-0.314-0.037-0.434-0.037c-1.84-0.217-3.904-0.583-6.192-1.069
	c-2.303-0.486-3.941-1.294-4.906-2.445l-0.314-0.471c-0.075-0.135-0.217-0.359-0.381-0.651c-0.232-0.733-0.284-1.421-0.179-2.056
	c0.112-0.628,0.239-1.197,0.359-1.713c0.052-0.217,0.075-0.456,0.037-0.695c-0.022-0.217-0.247-0.396-0.643-0.516
	c-0.411-0.172-0.703-0.411-0.86-0.733c-0.172-0.299-0.194-0.658-0.09-1.069c0.052-0.165,0.15-0.329,0.262-0.471
	c0.105-0.127,0.262-0.247,0.426-0.299c-0.396-0.165-0.666-0.434-0.77-0.808c-0.112-0.374-0.09-0.725,0.082-1.092
	c0.217-0.322,0.396-0.658,0.509-0.972c0.105-0.314,0.202-0.613,0.277-0.905c-0.471-0.052-0.89-0.135-1.301-0.224l-1.107-0.217
	c-0.12-0.052-0.247-0.097-0.359-0.12c-0.105-0.03-0.224-0.075-0.329-0.127c-0.359-0.217-0.651-0.456-0.875-0.688
	c-0.224-0.217-0.434-0.456-0.606-0.681c-0.105-0.344-0.172-0.703-0.202-1.077c-0.022-0.366,0.015-0.725,0.127-1.092
	c0-0.105,0.022-0.202,0.075-0.277c0.06-0.09,0.135-0.224,0.187-0.404c0.269-0.621,0.636-1.249,1.077-1.885
	c0.419-0.628,0.808-1.294,1.152-1.982c0.905-1.421,1.69-2.715,2.326-3.889c0.636-1.174,0.95-1.929,0.95-2.288
	c-0.052-0.396-0.12-0.83-0.179-1.294c-0.06-0.449-0.082-0.875-0.082-1.271c0-2.348,0.516-4.636,1.585-6.835
	c1.054-2.199,2.475-4.24,4.263-6.14c1.72-1.825,3.747-3.41,6.072-4.726c2.318-1.324,4.741-2.199,7.269-2.67
	c0.688-0.157,1.339-0.269,1.974-0.322s1.324-0.097,2.079-0.097c3.088,0,6.05,0.516,8.847,1.548c2.812,1.039,5.265,2.49,7.336,4.367
	c1.989,1.847,3.575,4.001,4.756,6.491c1.189,2.498,1.78,5.235,1.78,8.204c0,3.103-0.441,5.698-1.294,7.815
	c-0.875,2.116-1.817,4.12-2.842,6.005c-0.688,1.264-1.316,2.528-1.899,3.791c-0.576,1.264-1.032,2.625-1.376,4.106
	c-0.411,1.952,0.097,4.255,1.496,6.925c1.413,2.67,2.55,4.704,3.403,6.125c0.172,0.127,0.337,0.284,0.471,0.441
	c0.135,0.165,0.254,0.344,0.314,0.509C66.619,71.559,66.642,71.888,66.522,72.262z"/>
</svg>
