<?xml version="1.0" encoding="iso-8859-1"?>
<!-- Generator: Adobe Illustrator 21.0.1, SVG Export Plug-In . SVG Version: 6.00 Build 0)  -->
<svg version="1.1" id="Capa_1" xmlns="http://www.w3.org/2000/svg" xmlns:xlink="http://www.w3.org/1999/xlink" x="0px" y="0px"
	 viewBox="0 0 90 90" style="enable-background:new 0 0 90 90;" xml:space="preserve">
<g>
	<path d="M32.051,34.529c0-2.689,2.264-4.953,4.953-4.953h15.992c2.689,0,4.953,2.264,4.953,4.953v5.662h4.953v-5.662
		c0-5.378-4.528-9.906-9.906-9.906H37.004c-5.518,0-9.906,4.528-9.906,9.906v5.662h4.953L32.051,34.529z M5.164,83.773
		c0-2.689,2.264-4.953,4.953-4.953h15.992c2.689,0,4.953,2.264,4.953,4.953V90h4.953v-6.227c0-5.378-4.387-9.906-9.906-9.906H10.117
		c-5.518,0-9.906,4.528-9.906,9.906V90h4.953L5.164,83.773z M57.24,59.574c-0.141-0.565-0.565-1.133-1.133-1.555l-8.632-5.943
		c-0.141,0-0.141-0.141-0.141-0.284v-9.906c0-1.415-1.133-2.405-2.405-2.405c-1.415,0-2.405,1.133-2.405,2.405v10.046
		c0,0.141,0,0.284-0.141,0.284l-8.491,5.943c-0.565,0.284-0.99,0.849-1.133,1.555c-0.141,0.565,0,1.274,0.284,1.839
		c0.709,1.133,2.264,1.415,3.397,0.709l8.35-5.802c0.141-0.141,0.284,0,0.425,0l8.35,5.802c0.425,0.284,0.849,0.425,1.274,0.425
		c0.849,0,1.555-0.425,2.123-1.133c0.284-0.709,0.425-1.274,0.284-1.98L57.24,59.574z M58.939,83.773
		c0-2.689,2.264-4.953,4.953-4.953h15.992c2.689,0,4.953,2.264,4.953,4.953V90h4.953v-6.227c0-5.378-4.528-9.906-9.906-9.906H63.892
		c-5.518,0-9.906,4.528-9.906,9.906V90h4.953L58.939,83.773z M44.786,0c-5.662,0-10.19,4.528-10.19,10.19s4.528,10.19,10.19,10.19
		s10.19-4.528,10.19-10.19S50.448,0,44.786,0z M44.786,15.567c-2.973,0-5.237-2.405-5.237-5.237c0-2.973,2.405-5.237,5.237-5.237
		c2.973,0,5.237,2.405,5.237,5.237S47.618,15.567,44.786,15.567z M71.674,49.103c-5.662,0-10.19,4.528-10.19,10.19
		s4.528,10.19,10.19,10.19c5.662,0,10.19-4.528,10.19-10.19C81.863,53.775,77.335,49.103,71.674,49.103z M71.674,64.671
		c-2.973,0-5.237-2.405-5.237-5.237c0-2.973,2.405-5.237,5.237-5.237c2.973,0,5.237,2.405,5.237,5.237S74.506,64.671,71.674,64.671z
		 M17.899,69.623c5.662,0,10.19-4.528,10.19-10.19s-4.528-10.19-10.19-10.19s-10.19,4.528-10.19,10.19S12.237,69.623,17.899,69.623z
		 M17.899,54.056c2.973,0,5.237,2.405,5.237,5.237c0,2.973-2.405,5.237-5.237,5.237c-2.973,0-5.237-2.405-5.237-5.237
		S14.926,54.056,17.899,54.056z"/>
</g>
</svg>
