<?xml version="1.0" encoding="iso-8859-1"?>
<!-- Generator: Adobe Illustrator 21.0.1, SVG Export Plug-In . SVG Version: 6.00 Build 0)  -->
<svg version="1.1" id="Capa_1" xmlns="http://www.w3.org/2000/svg" xmlns:xlink="http://www.w3.org/1999/xlink" x="0px" y="0px"
	 viewBox="0 0 90 90" style="enable-background:new 0 0 90 90;" xml:space="preserve">
<path style="fill-rule:evenodd;clip-rule:evenodd;" d="M17.065,85.112h13.594v4.71H17.065V85.112z M17.065,74.643v4.821h13.594
	v-4.821H17.065z M17.065,64.107v4.777h13.594v-4.777H17.065z M6.842,60.625c0-1.92,0.625-3.527,1.964-4.844
	c1.317-1.295,2.879-1.964,4.777-1.964h17.076v4.777H13.583c-0.558,0-1.027,0.223-1.429,0.647c-0.424,0.402-0.603,0.871-0.603,1.384
	V90h-4.71V60.625z M76.35,0c1.786,0,3.348,0.714,4.754,2.031c1.362,1.317,2.054,2.902,2.054,4.71v83.08h-4.821V6.741
	c0-0.513-0.201-0.982-0.625-1.384C77.288,4.933,76.842,4.71,76.35,4.71H42.176c-0.603,0-1.094,0.223-1.496,0.647
	c-0.424,0.402-0.603,0.871-0.603,1.384v83.08h-4.71V6.741c0-1.853,0.625-3.415,1.964-4.732C38.605,0.67,40.212,0,42.176,0H76.35z
	 M45.658,85.112v4.71H72.69v-4.71H45.658z M45.658,74.643v4.821H72.69v-4.821H45.658z M45.658,64.107v4.777H72.69v-4.777H45.658z
	 M45.658,53.728v4.71H72.69v-4.71H45.658z M45.658,43.259v4.821H72.69v-4.821H45.658z M45.658,32.723V37.5H72.69v-4.777H45.658z
	 M45.658,21.563v4.777H72.69v-4.777H45.658z M45.658,10.402v4.777H72.69v-4.777H45.658z"/>
</svg>
