<?xml version="1.0" encoding="iso-8859-1"?>
<!-- Generator: Adobe Illustrator 21.0.1, SVG Export Plug-In . SVG Version: 6.00 Build 0)  -->
<svg version="1.1" id="Capa_1" xmlns="http://www.w3.org/2000/svg" xmlns:xlink="http://www.w3.org/1999/xlink" x="0px" y="0px"
	 viewBox="0 0 90 90" style="enable-background:new 0 0 90 90;" xml:space="preserve">
<path style="fill-rule:evenodd;clip-rule:evenodd;" d="M83.203,65.132c0,1.611-0.592,3.008-1.776,4.192
	c-1.161,1.184-2.534,1.776-4.121,1.776H12.766c-1.587,0-2.961-0.592-4.145-1.776c-1.161-1.184-1.753-2.582-1.753-4.192L6.845,23.684
	c0-1.397-0.592-0.261,0.261-1.35l36,31.713c1.089,0.947,2.7,0.947,3.789,0l35.976-31.666c0.379,0.474,0.474,0.521,0.474,0.545
	c0,0-0.189-0.024-0.189,0.758L83.203,65.132z M75.197,18.639L46.895,43.887c-1.089,0.971-2.7,0.971-3.789,0L15.111,18.639H75.197z
	 M86.518,15.371c-2.297-2.345-5.045-3.529-8.218-3.529H11.676c-3.268,0-6.039,1.184-8.289,3.529S0,20.487,0,23.684v42.632
	c0,3.197,1.137,5.992,3.387,8.313c2.25,2.345,5.021,3.529,8.289,3.529H78.3c3.174,0,5.921-1.184,8.218-3.529
	C88.839,72.308,90,69.513,90,66.316V23.684C90,20.487,88.839,17.716,86.518,15.371z"/>
</svg>
