<?xml version="1.0" encoding="iso-8859-1"?>
<!-- Generator: Adobe Illustrator 21.0.1, SVG Export Plug-In . SVG Version: 6.00 Build 0)  -->
<svg version="1.1" id="Capa_1" xmlns="http://www.w3.org/2000/svg" xmlns:xlink="http://www.w3.org/1999/xlink" x="0px" y="0px"
	 viewBox="0 0 90 90" style="enable-background:new 0 0 90 90;" xml:space="preserve">
<g>
	<path style="fill-rule:evenodd;clip-rule:evenodd;" d="M78.84,4.5c3.015,0,5.625,1.125,7.785,3.285
		c2.16,2.227,3.285,4.86,3.375,7.92v19.508c0,2.993-1.125,5.602-3.308,7.785c-2.205,2.182-4.837,3.262-7.853,3.262H67.41
		l4.815-4.477h6.548c1.755,0,3.285-0.63,4.613-1.958c1.305-1.327,1.98-2.858,1.98-4.612V15.705c0-1.755-0.675-3.307-1.98-4.613
		c-1.327-1.305-2.858-1.98-4.613-1.98H53.19c-1.868,0-3.443,0.675-4.747,1.98c-1.327,1.305-1.958,2.858-1.958,4.613v19.508
		c0,1.755,0.63,3.285,1.958,4.612c1.305,1.327,2.88,1.958,4.747,1.958h12.352L50.827,55.395c-0.158,0.27-0.337,0.45-0.607,0.517
		c-0.248,0.045-0.518,0.068-0.765,0.068c-0.36,0-0.653-0.045-0.923-0.18c-0.248-0.112-0.495-0.27-0.765-0.472
		c-0.405-0.472-0.585-0.99-0.563-1.62c0.022-0.63,0.27-1.125,0.742-1.53l6.548-6.097H53.28c-3.015,0-5.647-1.058-7.852-3.195
		c-2.183-2.182-3.285-4.747-3.285-7.762v-19.53c0-2.97,1.102-5.58,3.285-7.807C47.632,5.625,50.265,4.5,53.28,4.5H78.84z
		 M23.085,60.615c-3.082,0-6.142-1.53-9.158-4.545c-3.06-3.037-4.567-6.705-4.567-10.958v-3.15c0-3.195,1.102-6.075,3.352-8.663
		c2.25-2.587,5.693-3.892,10.373-3.892c5.062,0,8.617,1.35,10.665,4.028c2.025,2.677,3.082,5.535,3.082,8.528v3.15
		c0,4.388-1.507,8.055-4.455,11.025C29.407,59.13,26.302,60.615,23.085,60.615z M13.927,41.783v3.127c0,3.15,1.058,5.827,3.218,8.01
		c2.182,2.183,4.163,3.285,5.94,3.285c1.912,0,3.938-1.08,6.075-3.195c2.16-2.137,3.217-4.815,3.217-8.1v-3.127
		c0-0.72-0.067-1.373-0.225-2.025c-0.112-0.607-0.36-1.215-0.675-1.8c-0.81,1.103-2.115,2.318-4.005,3.577
		c-1.868,1.283-4.725,2.228-8.528,2.88h-0.157h-0.135c-0.495,0-0.878-0.158-1.237-0.472c-0.383-0.315-0.585-0.698-0.63-1.103
		c-0.09-0.495,0.023-0.99,0.315-1.395c0.292-0.427,0.72-0.675,1.26-0.743c3.938-0.653,6.592-1.642,7.987-2.903
		c1.372-1.282,2.16-2.16,2.362-2.677c-0.72-0.472-1.552-0.81-2.453-1.058c-0.945-0.202-1.98-0.337-3.172-0.337
		c-2.88,0-5.152,0.743-6.75,2.205C14.715,37.417,13.927,39.353,13.927,41.783z M23.085,63.45c0.585,0,1.102,0.225,1.598,0.63
		c0.45,0.45,0.72,0.945,0.765,1.53V85.5h-4.522V65.61c0-0.585,0.203-1.08,0.585-1.53C21.892,63.675,22.433,63.45,23.085,63.45z
		 M13.635,61.29c0.63-0.045,1.192,0.112,1.642,0.54c0.45,0.427,0.743,0.945,0.9,1.53l2.07,22.14h-4.522l-1.688-19.012l-1.462,0.405
		c-0.18,0-1.215,0.472-3.128,1.372c-1.935,0.9-2.88,2.475-2.88,4.68V85.5H0V72.945c0-3.78,1.395-6.412,4.23-7.853
		c2.835-1.485,4.522-2.317,5.04-2.542l3.555-1.057l0.495-0.202H13.635z M36.832,62.775c0.495,0.112,2.16,0.922,4.995,2.385
		c2.835,1.485,4.253,4.072,4.253,7.785V85.5h-4.32V72.945c0-2.205-1.013-3.78-2.925-4.68c-1.958-0.9-3.015-1.372-3.105-1.372h-0.202
		l-1.283-0.405L32.467,85.5h-4.432l2.07-22.14c0-0.585,0.203-1.103,0.675-1.53c0.45-0.428,0.99-0.585,1.597-0.54h0.315l0.653,0.292
		L36.832,62.775z"/>
</g>
</svg>
