<?xml version="1.0" encoding="iso-8859-1"?>
<!-- Generator: Adobe Illustrator 21.0.1, SVG Export Plug-In . SVG Version: 6.00 Build 0)  -->
<svg version="1.1" id="Capa_1" xmlns="http://www.w3.org/2000/svg" xmlns:xlink="http://www.w3.org/1999/xlink" x="0px" y="0px"
	 viewBox="0 0 90 90" style="enable-background:new 0 0 90 90;" xml:space="preserve">
<g>
	<path style="fill-rule:evenodd;clip-rule:evenodd;" d="M52.29,44.482c-1.913,1.845-1.913,3.69-3.825,3.69s-3.825-1.845-5.715-3.69
		c-1.912-1.822-3.825-3.667-3.825-5.49c0-1.845,1.913-1.845,3.825-3.667c1.89-1.845-3.825-7.335-5.715-7.335
		c-1.912,0-5.715,5.49-5.715,5.49c0,3.667,3.893,11.115,7.605,14.693c3.735,3.555,11.452,7.313,15.278,7.313
		c0,0,5.715-3.667,5.715-5.49C59.917,48.173,54.202,42.66,52.29,44.482z M44.978,74.835c0.923,0,1.732,0.315,2.385,0.923
		c0.675,0.63,1.035,1.395,1.035,2.272c0,0.81-0.382,1.575-1.08,2.205c-0.698,0.63-1.485,0.945-2.34,0.945
		c-0.923,0-1.688-0.315-2.318-0.945c-0.653-0.63-0.945-1.395-0.945-2.205c0-0.878,0.292-1.643,0.945-2.272
		C43.29,75.15,44.055,74.835,44.978,74.835z M64.598,84.96c0.607,0,1.125-0.18,1.597-0.563c0.45-0.382,0.698-0.9,0.698-1.53V71.595
		H23.22v11.272c0,0.585,0.225,1.08,0.653,1.485c0.472,0.382,0.99,0.607,1.62,0.607H64.598z M25.493,5.017
		c-0.63,0-1.148,0.247-1.62,0.675c-0.427,0.427-0.653,0.922-0.653,1.44v5.287h43.673V7.133c0-0.518-0.248-1.013-0.698-1.44
		c-0.472-0.428-0.99-0.675-1.597-0.675H25.493z M66.893,66.645V17.438H23.22v49.207H66.893z M64.598,0
		c1.98,0,3.735,0.72,5.197,2.115C71.257,3.533,72,5.198,72,7.133v75.735c0,1.98-0.72,3.668-2.16,5.063
		C68.4,89.302,66.668,90,64.598,90H25.493c-2.07,0-3.847-0.698-5.31-2.07C18.72,86.535,18,84.848,18,82.868V7.133
		c0-1.935,0.743-3.6,2.228-5.017C21.712,0.72,23.468,0,25.493,0H64.598z"/>
</g>
</svg>
